<svg xmlns="http://www.w3.org/2000/svg" xmlns:xlink="http://www.w3.org/1999/xlink" version="1.1" class="marks" width="257" height="259" viewBox="0 0 257 259"><rect width="257" height="259" fill="white"/><g fill="none" stroke-miterlimit="10" transform="translate(43,22)"><g class="mark-group role-frame root" role="graphics-object" aria-roledescription="group mark container"><g transform="translate(0,0)"><path class="background" aria-hidden="true" d="M0.5,0.5h200v200h-200Z" stroke="#ddd"/><g><g class="mark-group role-axis" aria-hidden="true"><g transform="translate(0.5,200.5)"><path class="background" aria-hidden="true" d="M0,0h0v0h0Z" pointer-events="none"/><g><g class="mark-rule role-axis-grid" pointer-events="none"><line transform="translate(11,-200)" x2="0" y2="200" stroke="#ddd" stroke-width="1" opacity="1"/><line transform="translate(47,-200)" x2="0" y2="200" stroke="#ddd" stroke-width="1" opacity="1"/><line transform="translate(84,-200)" x2="0" y2="200" stroke="#ddd" stroke-width="1" opacity="1"/><line transform="translate(121,-200)" x2="0" y2="200" stroke="#ddd" stroke-width="1" opacity="1"/><line transform="translate(158,-200)" x2="0" y2="200" stroke="#ddd" stroke-width="1" opacity="1"/><line transform="translate(195,-200)" x2="0" y2="200" stroke="#ddd" stroke-width="1" opacity="1"/></g></g><path class="foreground" aria-hidden="true" d="" pointer-events="none" display="none"/></g></g><g class="mark-group role-axis" aria-hidden="true"><g transform="translate(0.5,0.5)"><path class="background" aria-hidden="true" d="M0,0h0v0h0Z" pointer-events="none"/><g><g class="mark-rule role-axis-grid" pointer-events="none"><line transform="translate(0,200)" x2="200" y2="0" stroke="#ddd" stroke-width="1" opacity="1"/><line transform="translate(0,162)" x2="200" y2="0" stroke="#ddd" stroke-width="1" opacity="1"/><line transform="translate(0,123)" x2="200" y2="0" stroke="#ddd" stroke-width="1" opacity="1"/><line transform="translate(0,85)" x2="200" y2="0" stroke="#ddd" stroke-width="1" opacity="1"/><line transform="translate(0,46)" x2="200" y2="0" stroke="#ddd" stroke-width="1" opacity="1"/><line transform="translate(0,8)" x2="200" y2="0" stroke="#ddd" stroke-width="1" opacity="1"/></g></g><path class="foreground" aria-hidden="true" d="" pointer-events="none" display="none"/></g></g><g class="mark-group role-axis" role="graphics-symbol" aria-roledescription="axis" aria-label="X-axis titled 'date' for a time scale with values from January 31 to March 10"><g transform="translate(0.5,200.5)"><path class="background" aria-hidden="true" d="M0,0h0v0h0Z" pointer-events="none"/><g><g class="mark-rule role-axis-tick" pointer-events="none"><line transform="translate(11,0)" x2="0" y2="5" stroke="#888" stroke-width="1" opacity="1"/><line transform="translate(47,0)" x2="0" y2="5" stroke="#888" stroke-width="1" opacity="1"/><line transform="translate(84,0)" x2="0" y2="5" stroke="#888" stroke-width="1" opacity="1"/><line transform="translate(121,0)" x2="0" y2="5" stroke="#888" stroke-width="1" opacity="1"/><line transform="translate(158,0)" x2="0" y2="5" stroke="#888" stroke-width="1" opacity="1"/><line transform="translate(195,0)" x2="0" y2="5" stroke="#888" stroke-width="1" opacity="1"/></g><g class="mark-text role-axis-label" pointer-events="none"><text text-anchor="middle" transform="translate(10.526315789473683,15)" font-family="sans-serif" font-size="10px" fill="#000" opacity="1">Feb 02</text><text text-anchor="middle" transform="translate(47.368421052631575,15)" font-family="sans-serif" font-size="10px" fill="#000" opacity="0">Feb 09</text><text text-anchor="middle" transform="translate(84.21052631578947,15)" font-family="sans-serif" font-size="10px" fill="#000" opacity="1">Feb 16</text><text text-anchor="middle" transform="translate(121.05263157894737,15)" font-family="sans-serif" font-size="10px" fill="#000" opacity="0">Feb 23</text><text text-anchor="middle" transform="translate(157.89473684210526,15)" font-family="sans-serif" font-size="10px" fill="#000" opacity="1">Mar 02</text><text text-anchor="middle" transform="translate(194.73684210526315,15)" font-family="sans-serif" font-size="10px" fill="#000" opacity="0">Mar 09</text></g><g class="mark-rule role-axis-domain" pointer-events="none"><line transform="translate(0,0)" x2="200" y2="0" stroke="#888" stroke-width="1" opacity="1"/></g><g class="mark-text role-axis-title" pointer-events="none"><text text-anchor="middle" transform="translate(100,30)" font-family="sans-serif" font-size="11px" font-weight="bold" fill="#000" opacity="1">date</text></g></g><path class="foreground" aria-hidden="true" d="" pointer-events="none" display="none"/></g></g><g class="mark-group role-axis" role="graphics-symbol" aria-roledescription="axis" aria-label="Y-axis titled 'value' for a linear scale with values from 0 to 26"><g transform="translate(0.5,0.5)"><path class="background" aria-hidden="true" d="M0,0h0v0h0Z" pointer-events="none"/><g><g class="mark-rule role-axis-tick" pointer-events="none"><line transform="translate(0,200)" x2="-5" y2="0" stroke="#888" stroke-width="1" opacity="1"/><line transform="translate(0,162)" x2="-5" y2="0" stroke="#888" stroke-width="1" opacity="1"/><line transform="translate(0,123)" x2="-5" y2="0" stroke="#888" stroke-width="1" opacity="1"/><line transform="translate(0,85)" x2="-5" y2="0" stroke="#888" stroke-width="1" opacity="1"/><line transform="translate(0,46)" x2="-5" y2="0" stroke="#888" stroke-width="1" opacity="1"/><line transform="translate(0,8)" x2="-5" y2="0" stroke="#888" stroke-width="1" opacity="1"/></g><g class="mark-text role-axis-label" pointer-events="none"><text text-anchor="end" transform="translate(-7,203)" font-family="sans-serif" font-size="10px" fill="#000" opacity="1">0</text><text text-anchor="end" transform="translate(-7,164.53846153846155)" font-family="sans-serif" font-size="10px" fill="#000" opacity="1">5</text><text text-anchor="end" transform="translate(-7,126.07692307692308)" font-family="sans-serif" font-size="10px" fill="#000" opacity="1">10</text><text text-anchor="end" transform="translate(-7,87.61538461538463)" font-family="sans-serif" font-size="10px" fill="#000" opacity="1">15</text><text text-anchor="end" transform="translate(-7,49.153846153846146)" font-family="sans-serif" font-size="10px" fill="#000" opacity="1">20</text><text text-anchor="end" transform="translate(-7,10.692307692307686)" font-family="sans-serif" font-size="10px" fill="#000" opacity="1">25</text></g><g class="mark-rule role-axis-domain" pointer-events="none"><line transform="translate(0,200)" x2="0" y2="-200" stroke="#888" stroke-width="1" opacity="1"/></g><g class="mark-text role-axis-title" pointer-events="none"><text text-anchor="middle" transform="translate(-27,100) rotate(-90) translate(0,-2)" font-family="sans-serif" font-size="11px" font-weight="bold" fill="#000" opacity="1">value</text></g></g><path class="foreground" aria-hidden="true" d="" pointer-events="none" display="none"/></g></g><g class="mark-line role-mark layer_0_layer_0_marks" role="graphics-object" aria-roledescription="line mark container"><path aria-label="date: Jan 31; value: 25" role="graphics-symbol" aria-roledescription="line mark" d="M0,7.692L5.263,7.692L10.526,7.692L15.789,7.692L21.053,7.692L26.316,7.692L31.579,7.692L36.842,7.692L42.105,7.692L47.368,7.692L52.632,7.692L57.895,7.692L63.158,7.692L68.421,7.692L73.684,7.692L78.947,7.692L84.211,7.692L89.474,7.692L94.737,7.692L100,7.692L105.263,7.692L110.526,7.692L115.789,7.692L121.053,7.692L126.316,7.692L131.579,7.692L136.842,7.692L142.105,7.692L147.368,7.692L152.632,7.692L157.895,7.692L163.158,7.692L168.421,7.692L173.684,7.692L178.947,7.692L184.211,7.692L189.474,7.692L194.737,7.692L200,7.692" stroke="#4c78a8" stroke-width="2"/></g><g class="mark-symbol role-mark layer_0_layer_1_marks" role="graphics-object" aria-roledescription="symbol mark container"><path aria-label="date: Jan 31; value: 25" role="graphics-symbol" aria-roledescription="point" transform="translate(0,7.692307692307687)" d="M2.739,0A2.739,2.739,0,1,1,-2.739,0A2.739,2.739,0,1,1,2.739,0" fill="#4c78a8" stroke-width="2" opacity="1"/><path aria-label="date: Feb 01; value: 25" role="graphics-symbol" aria-roledescription="point" transform="translate(5.263157894736842,7.692307692307687)" d="M2.739,0A2.739,2.739,0,1,1,-2.739,0A2.739,2.739,0,1,1,2.739,0" fill="#4c78a8" stroke-width="2" opacity="1"/><path aria-label="date: Feb 02; value: 25" role="graphics-symbol" aria-roledescription="point" transform="translate(10.526315789473683,7.692307692307687)" d="M2.739,0A2.739,2.739,0,1,1,-2.739,0A2.739,2.739,0,1,1,2.739,0" fill="#4c78a8" stroke-width="2" opacity="1"/><path aria-label="date: Feb 03; value: 25" role="graphics-symbol" aria-roledescription="point" transform="translate(15.789473684210526,7.692307692307687)" d="M2.739,0A2.739,2.739,0,1,1,-2.739,0A2.739,2.739,0,1,1,2.739,0" fill="#4c78a8" stroke-width="2" opacity="1"/><path aria-label="date: Feb 04; value: 25" role="graphics-symbol" aria-roledescription="point" transform="translate(21.052631578947366,7.692307692307687)" d="M2.739,0A2.739,2.739,0,1,1,-2.739,0A2.739,2.739,0,1,1,2.739,0" fill="#4c78a8" stroke-width="2" opacity="1"/><path aria-label="date: Feb 05; value: 25" role="graphics-symbol" aria-roledescription="point" transform="translate(26.31578947368421,7.692307692307687)" d="M2.739,0A2.739,2.739,0,1,1,-2.739,0A2.739,2.739,0,1,1,2.739,0" fill="#4c78a8" stroke-width="2" opacity="1"/><path aria-label="date: Feb 06; value: 25" role="graphics-symbol" aria-roledescription="point" transform="translate(31.57894736842105,7.692307692307687)" d="M2.739,0A2.739,2.739,0,1,1,-2.739,0A2.739,2.739,0,1,1,2.739,0" fill="#4c78a8" stroke-width="2" opacity="1"/><path aria-label="date: Feb 07; value: 25" role="graphics-symbol" aria-roledescription="point" transform="translate(36.84210526315789,7.692307692307687)" d="M2.739,0A2.739,2.739,0,1,1,-2.739,0A2.739,2.739,0,1,1,2.739,0" fill="#4c78a8" stroke-width="2" opacity="1"/><path aria-label="date: Feb 08; value: 25" role="graphics-symbol" aria-roledescription="point" transform="translate(42.10526315789473,7.692307692307687)" d="M2.739,0A2.739,2.739,0,1,1,-2.739,0A2.739,2.739,0,1,1,2.739,0" fill="#4c78a8" stroke-width="2" opacity="1"/><path aria-label="date: Feb 09; value: 25" role="graphics-symbol" aria-roledescription="point" transform="translate(47.368421052631575,7.692307692307687)" d="M2.739,0A2.739,2.739,0,1,1,-2.739,0A2.739,2.739,0,1,1,2.739,0" fill="#4c78a8" stroke-width="2" opacity="1"/><path aria-label="date: Feb 10; value: 25" role="graphics-symbol" aria-roledescription="point" transform="translate(52.63157894736842,7.692307692307687)" d="M2.739,0A2.739,2.739,0,1,1,-2.739,0A2.739,2.739,0,1,1,2.739,0" fill="#4c78a8" stroke-width="2" opacity="1"/><path aria-label="date: Feb 11; value: 25" role="graphics-symbol" aria-roledescription="point" transform="translate(57.89473684210527,7.692307692307687)" d="M2.739,0A2.739,2.739,0,1,1,-2.739,0A2.739,2.739,0,1,1,2.739,0" fill="#4c78a8" stroke-width="2" opacity="1"/><path aria-label="date: Feb 12; value: 25" role="graphics-symbol" aria-roledescription="point" transform="translate(63.1578947368421,7.692307692307687)" d="M2.739,0A2.739,2.739,0,1,1,-2.739,0A2.739,2.739,0,1,1,2.739,0" fill="#4c78a8" stroke-width="2" opacity="1"/><path aria-label="date: Feb 13; value: 25" role="graphics-symbol" aria-roledescription="point" transform="translate(68.42105263157895,7.692307692307687)" d="M2.739,0A2.739,2.739,0,1,1,-2.739,0A2.739,2.739,0,1,1,2.739,0" fill="#4c78a8" stroke-width="2" opacity="1"/><path aria-label="date: Feb 14; value: 25" role="graphics-symbol" aria-roledescription="point" transform="translate(73.68421052631578,7.692307692307687)" d="M2.739,0A2.739,2.739,0,1,1,-2.739,0A2.739,2.739,0,1,1,2.739,0" fill="#4c78a8" stroke-width="2" opacity="1"/><path aria-label="date: Feb 15; value: 25" role="graphics-symbol" aria-roledescription="point" transform="translate(78.94736842105263,7.692307692307687)" d="M2.739,0A2.739,2.739,0,1,1,-2.739,0A2.739,2.739,0,1,1,2.739,0" fill="#4c78a8" stroke-width="2" opacity="1"/><path aria-label="date: Feb 16; value: 25" role="graphics-symbol" aria-roledescription="point" transform="translate(84.21052631578947,7.692307692307687)" d="M2.739,0A2.739,2.739,0,1,1,-2.739,0A2.739,2.739,0,1,1,2.739,0" fill="#4c78a8" stroke-width="2" opacity="1"/><path aria-label="date: Feb 17; value: 25" role="graphics-symbol" aria-roledescription="point" transform="translate(89.47368421052632,7.692307692307687)" d="M2.739,0A2.739,2.739,0,1,1,-2.739,0A2.739,2.739,0,1,1,2.739,0" fill="#4c78a8" stroke-width="2" opacity="1"/><path aria-label="date: Feb 18; value: 25" role="graphics-symbol" aria-roledescription="point" transform="translate(94.73684210526315,7.692307692307687)" d="M2.739,0A2.739,2.739,0,1,1,-2.739,0A2.739,2.739,0,1,1,2.739,0" fill="#4c78a8" stroke-width="2" opacity="1"/><path aria-label="date: Feb 19; value: 25" role="graphics-symbol" aria-roledescription="point" transform="translate(100,7.692307692307687)" d="M2.739,0A2.739,2.739,0,1,1,-2.739,0A2.739,2.739,0,1,1,2.739,0" fill="#4c78a8" stroke-width="2" opacity="1"/><path aria-label="date: Feb 20; value: 25" role="graphics-symbol" aria-roledescription="point" transform="translate(105.26315789473684,7.692307692307687)" d="M2.739,0A2.739,2.739,0,1,1,-2.739,0A2.739,2.739,0,1,1,2.739,0" fill="#4c78a8" stroke-width="2" opacity="1"/><path aria-label="date: Feb 21; value: 25" role="graphics-symbol" aria-roledescription="point" transform="translate(110.5263157894737,7.692307692307687)" d="M2.739,0A2.739,2.739,0,1,1,-2.739,0A2.739,2.739,0,1,1,2.739,0" fill="#4c78a8" stroke-width="2" opacity="1"/><path aria-label="date: Feb 22; value: 25" role="graphics-symbol" aria-roledescription="point" transform="translate(115.78947368421053,7.692307692307687)" d="M2.739,0A2.739,2.739,0,1,1,-2.739,0A2.739,2.739,0,1,1,2.739,0" fill="#4c78a8" stroke-width="2" opacity="1"/><path aria-label="date: Feb 23; value: 25" role="graphics-symbol" aria-roledescription="point" transform="translate(121.05263157894737,7.692307692307687)" d="M2.739,0A2.739,2.739,0,1,1,-2.739,0A2.739,2.739,0,1,1,2.739,0" fill="#4c78a8" stroke-width="2" opacity="1"/><path aria-label="date: Feb 24; value: 25" role="graphics-symbol" aria-roledescription="point" transform="translate(126.3157894736842,7.692307692307687)" d="M2.739,0A2.739,2.739,0,1,1,-2.739,0A2.739,2.739,0,1,1,2.739,0" fill="#4c78a8" stroke-width="2" opacity="1"/><path aria-label="date: Feb 25; value: 25" role="graphics-symbol" aria-roledescription="point" transform="translate(131.57894736842107,7.692307692307687)" d="M2.739,0A2.739,2.739,0,1,1,-2.739,0A2.739,2.739,0,1,1,2.739,0" fill="#4c78a8" stroke-width="2" opacity="1"/><path aria-label="date: Feb 26; value: 25" role="graphics-symbol" aria-roledescription="point" transform="translate(136.8421052631579,7.692307692307687)" d="M2.739,0A2.739,2.739,0,1,1,-2.739,0A2.739,2.739,0,1,1,2.739,0" fill="#4c78a8" stroke-width="2" opacity="1"/><path aria-label="date: Feb 27; value: 25" role="graphics-symbol" aria-roledescription="point" transform="translate(142.10526315789474,7.692307692307687)" d="M2.739,0A2.739,2.739,0,1,1,-2.739,0A2.739,2.739,0,1,1,2.739,0" fill="#4c78a8" stroke-width="2" opacity="1"/><path aria-label="date: Feb 28; value: 25" role="graphics-symbol" aria-roledescription="point" transform="translate(147.36842105263156,7.692307692307687)" d="M2.739,0A2.739,2.739,0,1,1,-2.739,0A2.739,2.739,0,1,1,2.739,0" fill="#4c78a8" stroke-width="2" opacity="1"/><path aria-label="date: Mar 01; value: 25" role="graphics-symbol" aria-roledescription="point" transform="translate(152.63157894736844,7.692307692307687)" d="M2.739,0A2.739,2.739,0,1,1,-2.739,0A2.739,2.739,0,1,1,2.739,0" fill="#4c78a8" stroke-width="2" opacity="1"/><path aria-label="date: Mar 02; value: 25" role="graphics-symbol" aria-roledescription="point" transform="translate(157.89473684210526,7.692307692307687)" d="M2.739,0A2.739,2.739,0,1,1,-2.739,0A2.739,2.739,0,1,1,2.739,0" fill="#4c78a8" stroke-width="2" opacity="1"/><path aria-label="date: Mar 03; value: 25" role="graphics-symbol" aria-roledescription="point" transform="translate(163.1578947368421,7.692307692307687)" d="M2.739,0A2.739,2.739,0,1,1,-2.739,0A2.739,2.739,0,1,1,2.739,0" fill="#4c78a8" stroke-width="2" opacity="1"/><path aria-label="date: Mar 04; value: 25" role="graphics-symbol" aria-roledescription="point" transform="translate(168.42105263157893,7.692307692307687)" d="M2.739,0A2.739,2.739,0,1,1,-2.739,0A2.739,2.739,0,1,1,2.739,0" fill="#4c78a8" stroke-width="2" opacity="1"/><path aria-label="date: Mar 05; value: 25" role="graphics-symbol" aria-roledescription="point" transform="translate(173.6842105263158,7.692307692307687)" d="M2.739,0A2.739,2.739,0,1,1,-2.739,0A2.739,2.739,0,1,1,2.739,0" fill="#4c78a8" stroke-width="2" opacity="1"/><path aria-label="date: Mar 06; value: 25" role="graphics-symbol" aria-roledescription="point" transform="translate(178.94736842105263,7.692307692307687)" d="M2.739,0A2.739,2.739,0,1,1,-2.739,0A2.739,2.739,0,1,1,2.739,0" fill="#4c78a8" stroke-width="2" opacity="1"/><path aria-label="date: Mar 07; value: 25" role="graphics-symbol" aria-roledescription="point" transform="translate(184.21052631578948,7.692307692307687)" d="M2.739,0A2.739,2.739,0,1,1,-2.739,0A2.739,2.739,0,1,1,2.739,0" fill="#4c78a8" stroke-width="2" opacity="1"/><path aria-label="date: Mar 08; value: 25" role="graphics-symbol" aria-roledescription="point" transform="translate(189.4736842105263,7.692307692307687)" d="M2.739,0A2.739,2.739,0,1,1,-2.739,0A2.739,2.739,0,1,1,2.739,0" fill="#4c78a8" stroke-width="2" opacity="1"/><path aria-label="date: Mar 09; value: 25" role="graphics-symbol" aria-roledescription="point" transform="translate(194.73684210526315,7.692307692307687)" d="M2.739,0A2.739,2.739,0,1,1,-2.739,0A2.739,2.739,0,1,1,2.739,0" fill="#4c78a8" stroke-width="2" opacity="1"/><path aria-label="date: Mar 10; value: 25" role="graphics-symbol" aria-roledescription="point" transform="translate(200,7.692307692307687)" d="M2.739,0A2.739,2.739,0,1,1,-2.739,0A2.739,2.739,0,1,1,2.739,0" fill="#4c78a8" stroke-width="2" opacity="1"/></g><g class="mark-group role-title"><g transform="translate(100,-17)"><path class="background" aria-hidden="true" d="M0,0h0v0h0Z" pointer-events="none"/><g><g class="mark-text role-title-text" role="graphics-symbol" aria-roledescription="title" aria-label="Title text 'Burndown chart sprint'" pointer-events="none"><text text-anchor="middle" transform="translate(0,10)" font-family="sans-serif" font-size="13px" font-weight="bold" fill="#000" opacity="1">Burndown chart sprint</text></g></g><path class="foreground" aria-hidden="true" d="" pointer-events="none" display="none"/></g></g></g><path class="foreground" aria-hidden="true" d="" display="none"/></g></g></g></svg>