<svg xmlns="http://www.w3.org/2000/svg" xmlns:xlink="http://www.w3.org/1999/xlink" version="1.1" class="marks" width="351" height="359" viewBox="0 0 351 359"><rect width="351" height="359" fill="white"/><g fill="none" stroke-miterlimit="10" transform="translate(43,22)"><g class="mark-group role-frame root" role="graphics-object" aria-roledescription="group mark container"><g transform="translate(0,0)"><path class="background" aria-hidden="true" d="M0.5,0.5h300v300h-300Z" stroke="#ddd"/><g><g class="mark-group role-axis" aria-hidden="true"><g transform="translate(0.5,300.5)"><path class="background" aria-hidden="true" d="M0,0h0v0h0Z" pointer-events="none"/><g><g class="mark-rule role-axis-grid" pointer-events="none"><line transform="translate(8,-300)" x2="0" y2="300" stroke="#ddd" stroke-width="1" opacity="1"/><line transform="translate(35,-300)" x2="0" y2="300" stroke="#ddd" stroke-width="1" opacity="1"/><line transform="translate(62,-300)" x2="0" y2="300" stroke="#ddd" stroke-width="1" opacity="1"/><line transform="translate(88,-300)" x2="0" y2="300" stroke="#ddd" stroke-width="1" opacity="1"/><line transform="translate(115,-300)" x2="0" y2="300" stroke="#ddd" stroke-width="1" opacity="1"/><line transform="translate(142,-300)" x2="0" y2="300" stroke="#ddd" stroke-width="1" opacity="1"/><line transform="translate(169,-300)" x2="0" y2="300" stroke="#ddd" stroke-width="1" opacity="1"/><line transform="translate(196,-300)" x2="0" y2="300" stroke="#ddd" stroke-width="1" opacity="1"/><line transform="translate(223,-300)" x2="0" y2="300" stroke="#ddd" stroke-width="1" opacity="1"/><line transform="translate(250,-300)" x2="0" y2="300" stroke="#ddd" stroke-width="1" opacity="1"/><line transform="translate(277,-300)" x2="0" y2="300" stroke="#ddd" stroke-width="1" opacity="1"/></g></g><path class="foreground" aria-hidden="true" d="" pointer-events="none" display="none"/></g></g><g class="mark-group role-axis" aria-hidden="true"><g transform="translate(0.5,0.5)"><path class="background" aria-hidden="true" d="M0,0h0v0h0Z" pointer-events="none"/><g><g class="mark-rule role-axis-grid" pointer-events="none"><line transform="translate(0,300)" x2="300" y2="0" stroke="#ddd" stroke-width="1" opacity="1"/><line transform="translate(0,242)" x2="300" y2="0" stroke="#ddd" stroke-width="1" opacity="1"/><line transform="translate(0,185)" x2="300" y2="0" stroke="#ddd" stroke-width="1" opacity="1"/><line transform="translate(0,127)" x2="300" y2="0" stroke="#ddd" stroke-width="1" opacity="1"/><line transform="translate(0,69)" x2="300" y2="0" stroke="#ddd" stroke-width="1" opacity="1"/><line transform="translate(0,12)" x2="300" y2="0" stroke="#ddd" stroke-width="1" opacity="1"/></g></g><path class="foreground" aria-hidden="true" d="" pointer-events="none" display="none"/></g></g><g class="mark-group role-axis" role="graphics-symbol" aria-roledescription="axis" aria-label="X-axis titled 'date' for a time scale with values from January 31 to April 19"><g transform="translate(0.5,300.5)"><path class="background" aria-hidden="true" d="M0,0h0v0h0Z" pointer-events="none"/><g><g class="mark-rule role-axis-tick" pointer-events="none"><line transform="translate(8,0)" x2="0" y2="5" stroke="#888" stroke-width="1" opacity="1"/><line transform="translate(35,0)" x2="0" y2="5" stroke="#888" stroke-width="1" opacity="1"/><line transform="translate(62,0)" x2="0" y2="5" stroke="#888" stroke-width="1" opacity="1"/><line transform="translate(88,0)" x2="0" y2="5" stroke="#888" stroke-width="1" opacity="1"/><line transform="translate(115,0)" x2="0" y2="5" stroke="#888" stroke-width="1" opacity="1"/><line transform="translate(142,0)" x2="0" y2="5" stroke="#888" stroke-width="1" opacity="1"/><line transform="translate(169,0)" x2="0" y2="5" stroke="#888" stroke-width="1" opacity="1"/><line transform="translate(196,0)" x2="0" y2="5" stroke="#888" stroke-width="1" opacity="1"/><line transform="translate(223,0)" x2="0" y2="5" stroke="#888" stroke-width="1" opacity="1"/><line transform="translate(250,0)" x2="0" y2="5" stroke="#888" stroke-width="1" opacity="1"/><line transform="translate(277,0)" x2="0" y2="5" stroke="#888" stroke-width="1" opacity="1"/></g><g class="mark-text role-axis-label" pointer-events="none"><text text-anchor="middle" transform="translate(7.692307692307692,15)" font-family="sans-serif" font-size="10px" fill="#000" opacity="1">Feb 02</text><text text-anchor="middle" transform="translate(34.61538461538462,15)" font-family="sans-serif" font-size="10px" fill="#000" opacity="0">Feb 09</text><text text-anchor="middle" transform="translate(61.53846153846153,15)" font-family="sans-serif" font-size="10px" fill="#000" opacity="1">Feb 16</text><text text-anchor="middle" transform="translate(88.46153846153847,15)" font-family="sans-serif" font-size="10px" fill="#000" opacity="0">Feb 23</text><text text-anchor="middle" transform="translate(115.38461538461539,15)" font-family="sans-serif" font-size="10px" fill="#000" opacity="1">Mar 02</text><text text-anchor="middle" transform="translate(142.3076923076923,15)" font-family="sans-serif" font-size="10px" fill="#000" opacity="0">Mar 09</text><text text-anchor="middle" transform="translate(169.23076923076923,15)" font-family="sans-serif" font-size="10px" fill="#000" opacity="1">Mar 16</text><text text-anchor="middle" transform="translate(196.15384615384616,15)" font-family="sans-serif" font-size="10px" fill="#000" opacity="0">Mar 23</text><text text-anchor="middle" transform="translate(223.0769230769231,15)" font-family="sans-serif" font-size="10px" fill="#000" opacity="1">Mar 30</text><text text-anchor="middle" transform="translate(250,15)" font-family="sans-serif" font-size="10px" fill="#000" opacity="0">Apr 06</text><text text-anchor="middle" transform="translate(276.92307692307696,15)" font-family="sans-serif" font-size="10px" fill="#000" opacity="1">Apr 13</text></g><g class="mark-rule role-axis-domain" pointer-events="none"><line transform="translate(0,0)" x2="300" y2="0" stroke="#888" stroke-width="1" opacity="1"/></g><g class="mark-text role-axis-title" pointer-events="none"><text text-anchor="middle" transform="translate(150,30)" font-family="sans-serif" font-size="11px" font-weight="bold" fill="#000" opacity="1">date</text></g></g><path class="foreground" aria-hidden="true" d="" pointer-events="none" display="none"/></g></g><g class="mark-group role-axis" role="graphics-symbol" aria-roledescription="axis" aria-label="Y-axis titled 'value' for a linear scale with values from 0 to 26"><g transform="translate(0.5,0.5)"><path class="background" aria-hidden="true" d="M0,0h0v0h0Z" pointer-events="none"/><g><g class="mark-rule role-axis-tick" pointer-events="none"><line transform="translate(0,300)" x2="-5" y2="0" stroke="#888" stroke-width="1" opacity="1"/><line transform="translate(0,242)" x2="-5" y2="0" stroke="#888" stroke-width="1" opacity="1"/><line transform="translate(0,185)" x2="-5" y2="0" stroke="#888" stroke-width="1" opacity="1"/><line transform="translate(0,127)" x2="-5" y2="0" stroke="#888" stroke-width="1" opacity="1"/><line transform="translate(0,69)" x2="-5" y2="0" stroke="#888" stroke-width="1" opacity="1"/><line transform="translate(0,12)" x2="-5" y2="0" stroke="#888" stroke-width="1" opacity="1"/></g><g class="mark-text role-axis-label" pointer-events="none"><text text-anchor="end" transform="translate(-7,303)" font-family="sans-serif" font-size="10px" fill="#000" opacity="1">0</text><text text-anchor="end" transform="translate(-7,245.30769230769232)" font-family="sans-serif" font-size="10px" fill="#000" opacity="1">5</text><text text-anchor="end" transform="translate(-7,187.6153846153846)" font-family="sans-serif" font-size="10px" fill="#000" opacity="1">10</text><text text-anchor="end" transform="translate(-7,129.92307692307693)" font-family="sans-serif" font-size="10px" fill="#000" opacity="1">15</text><text text-anchor="end" transform="translate(-7,72.23076923076921)" font-family="sans-serif" font-size="10px" fill="#000" opacity="1">20</text><text text-anchor="end" transform="translate(-7,14.538461538461531)" font-family="sans-serif" font-size="10px" fill="#000" opacity="1">25</text></g><g class="mark-rule role-axis-domain" pointer-events="none"><line transform="translate(0,300)" x2="0" y2="-300" stroke="#888" stroke-width="1" opacity="1"/></g><g class="mark-text role-axis-title" pointer-events="none"><text text-anchor="middle" transform="translate(-27,150) rotate(-90) translate(0,-2)" font-family="sans-serif" font-size="11px" font-weight="bold" fill="#000" opacity="1">value</text></g></g><path class="foreground" aria-hidden="true" d="" pointer-events="none" display="none"/></g></g><g class="mark-line role-mark layer_0_layer_0_marks" role="graphics-object" aria-roledescription="line mark container"><path aria-label="date: Jan 31; value: 25" role="graphics-symbol" aria-roledescription="line mark" d="M0,11.538L3.846,11.538L7.692,11.538L11.538,11.538L15.385,11.538L19.231,11.538L23.077,11.538L26.923,11.538L30.769,11.538L34.615,11.538L38.462,11.538L42.308,11.538L46.154,11.538L50,11.538L53.846,11.538L57.692,11.538L61.538,11.538L65.385,11.538L69.231,11.538L73.077,11.538L76.923,11.538L80.769,11.538L84.615,11.538L88.462,11.538L92.308,11.538L96.154,11.538L100,11.538L103.846,11.538L107.692,11.538L111.538,11.538L115.385,11.538L119.231,11.538L123.077,11.538L126.923,11.538L130.769,11.538L134.615,11.538L138.462,11.538L142.308,11.538L146.154,11.538L150,11.538L153.846,11.538L157.692,11.538L161.538,11.538L165.385,11.538L169.231,11.538L173.077,11.538L176.923,11.538L180.769,11.538L184.615,11.538L188.462,11.538L192.308,11.538L196.154,11.538L200,11.538L203.846,11.538L207.692,11.538L211.538,11.538L215.385,11.538L219.231,11.538L223.077,11.538L226.923,11.538L230.769,11.538L234.615,11.538L238.462,11.538L242.308,11.538L246.154,11.538L250,11.538L253.846,11.538L257.692,11.538L261.538,11.538L265.385,11.538L269.231,11.538L273.077,11.538L276.923,11.538L280.769,11.538L284.615,11.538L288.462,11.538L292.308,11.538L296.154,11.538L300,11.538" stroke="#4c78a8" stroke-width="2"/></g><g class="mark-symbol role-mark layer_0_layer_1_marks" role="graphics-object" aria-roledescription="symbol mark container"><path aria-label="date: Jan 31; value: 25" role="graphics-symbol" aria-roledescription="point" transform="translate(0,11.538461538461531)" d="M2.739,0A2.739,2.739,0,1,1,-2.739,0A2.739,2.739,0,1,1,2.739,0" fill="#4c78a8" stroke-width="2" opacity="1"/><path aria-label="date: Feb 01; value: 25" role="graphics-symbol" aria-roledescription="point" transform="translate(3.846153846153846,11.538461538461531)" d="M2.739,0A2.739,2.739,0,1,1,-2.739,0A2.739,2.739,0,1,1,2.739,0" fill="#4c78a8" stroke-width="2" opacity="1"/><path aria-label="date: Feb 02; value: 25" role="graphics-symbol" aria-roledescription="point" transform="translate(7.692307692307692,11.538461538461531)" d="M2.739,0A2.739,2.739,0,1,1,-2.739,0A2.739,2.739,0,1,1,2.739,0" fill="#4c78a8" stroke-width="2" opacity="1"/><path aria-label="date: Feb 03; value: 25" role="graphics-symbol" aria-roledescription="point" transform="translate(11.538461538461538,11.538461538461531)" d="M2.739,0A2.739,2.739,0,1,1,-2.739,0A2.739,2.739,0,1,1,2.739,0" fill="#4c78a8" stroke-width="2" opacity="1"/><path aria-label="date: Feb 04; value: 25" role="graphics-symbol" aria-roledescription="point" transform="translate(15.384615384615383,11.538461538461531)" d="M2.739,0A2.739,2.739,0,1,1,-2.739,0A2.739,2.739,0,1,1,2.739,0" fill="#4c78a8" stroke-width="2" opacity="1"/><path aria-label="date: Feb 05; value: 25" role="graphics-symbol" aria-roledescription="point" transform="translate(19.23076923076923,11.538461538461531)" d="M2.739,0A2.739,2.739,0,1,1,-2.739,0A2.739,2.739,0,1,1,2.739,0" fill="#4c78a8" stroke-width="2" opacity="1"/><path aria-label="date: Feb 06; value: 25" role="graphics-symbol" aria-roledescription="point" transform="translate(23.076923076923077,11.538461538461531)" d="M2.739,0A2.739,2.739,0,1,1,-2.739,0A2.739,2.739,0,1,1,2.739,0" fill="#4c78a8" stroke-width="2" opacity="1"/><path aria-label="date: Feb 07; value: 25" role="graphics-symbol" aria-roledescription="point" transform="translate(26.923076923076923,11.538461538461531)" d="M2.739,0A2.739,2.739,0,1,1,-2.739,0A2.739,2.739,0,1,1,2.739,0" fill="#4c78a8" stroke-width="2" opacity="1"/><path aria-label="date: Feb 08; value: 25" role="graphics-symbol" aria-roledescription="point" transform="translate(30.769230769230766,11.538461538461531)" d="M2.739,0A2.739,2.739,0,1,1,-2.739,0A2.739,2.739,0,1,1,2.739,0" fill="#4c78a8" stroke-width="2" opacity="1"/><path aria-label="date: Feb 09; value: 25" role="graphics-symbol" aria-roledescription="point" transform="translate(34.61538461538462,11.538461538461531)" d="M2.739,0A2.739,2.739,0,1,1,-2.739,0A2.739,2.739,0,1,1,2.739,0" fill="#4c78a8" stroke-width="2" opacity="1"/><path aria-label="date: Feb 10; value: 25" role="graphics-symbol" aria-roledescription="point" transform="translate(38.46153846153846,11.538461538461531)" d="M2.739,0A2.739,2.739,0,1,1,-2.739,0A2.739,2.739,0,1,1,2.739,0" fill="#4c78a8" stroke-width="2" opacity="1"/><path aria-label="date: Feb 11; value: 25" role="graphics-symbol" aria-roledescription="point" transform="translate(42.30769230769231,11.538461538461531)" d="M2.739,0A2.739,2.739,0,1,1,-2.739,0A2.739,2.739,0,1,1,2.739,0" fill="#4c78a8" stroke-width="2" opacity="1"/><path aria-label="date: Feb 12; value: 25" role="graphics-symbol" aria-roledescription="point" transform="translate(46.15384615384615,11.538461538461531)" d="M2.739,0A2.739,2.739,0,1,1,-2.739,0A2.739,2.739,0,1,1,2.739,0" fill="#4c78a8" stroke-width="2" opacity="1"/><path aria-label="date: Feb 13; value: 25" role="graphics-symbol" aria-roledescription="point" transform="translate(50,11.538461538461531)" d="M2.739,0A2.739,2.739,0,1,1,-2.739,0A2.739,2.739,0,1,1,2.739,0" fill="#4c78a8" stroke-width="2" opacity="1"/><path aria-label="date: Feb 14; value: 25" role="graphics-symbol" aria-roledescription="point" transform="translate(53.84615384615385,11.538461538461531)" d="M2.739,0A2.739,2.739,0,1,1,-2.739,0A2.739,2.739,0,1,1,2.739,0" fill="#4c78a8" stroke-width="2" opacity="1"/><path aria-label="date: Feb 15; value: 25" role="graphics-symbol" aria-roledescription="point" transform="translate(57.69230769230769,11.538461538461531)" d="M2.739,0A2.739,2.739,0,1,1,-2.739,0A2.739,2.739,0,1,1,2.739,0" fill="#4c78a8" stroke-width="2" opacity="1"/><path aria-label="date: Feb 16; value: 25" role="graphics-symbol" aria-roledescription="point" transform="translate(61.53846153846153,11.538461538461531)" d="M2.739,0A2.739,2.739,0,1,1,-2.739,0A2.739,2.739,0,1,1,2.739,0" fill="#4c78a8" stroke-width="2" opacity="1"/><path aria-label="date: Feb 17; value: 25" role="graphics-symbol" aria-roledescription="point" transform="translate(65.38461538461539,11.538461538461531)" d="M2.739,0A2.739,2.739,0,1,1,-2.739,0A2.739,2.739,0,1,1,2.739,0" fill="#4c78a8" stroke-width="2" opacity="1"/><path aria-label="date: Feb 18; value: 25" role="graphics-symbol" aria-roledescription="point" transform="translate(69.23076923076924,11.538461538461531)" d="M2.739,0A2.739,2.739,0,1,1,-2.739,0A2.739,2.739,0,1,1,2.739,0" fill="#4c78a8" stroke-width="2" opacity="1"/><path aria-label="date: Feb 19; value: 25" role="graphics-symbol" aria-roledescription="point" transform="translate(73.07692307692308,11.538461538461531)" d="M2.739,0A2.739,2.739,0,1,1,-2.739,0A2.739,2.739,0,1,1,2.739,0" fill="#4c78a8" stroke-width="2" opacity="1"/><path aria-label="date: Feb 20; value: 25" role="graphics-symbol" aria-roledescription="point" transform="translate(76.92307692307692,11.538461538461531)" d="M2.739,0A2.739,2.739,0,1,1,-2.739,0A2.739,2.739,0,1,1,2.739,0" fill="#4c78a8" stroke-width="2" opacity="1"/><path aria-label="date: Feb 21; value: 25" role="graphics-symbol" aria-roledescription="point" transform="translate(80.76923076923076,11.538461538461531)" d="M2.739,0A2.739,2.739,0,1,1,-2.739,0A2.739,2.739,0,1,1,2.739,0" fill="#4c78a8" stroke-width="2" opacity="1"/><path aria-label="date: Feb 22; value: 25" role="graphics-symbol" aria-roledescription="point" transform="translate(84.61538461538461,11.538461538461531)" d="M2.739,0A2.739,2.739,0,1,1,-2.739,0A2.739,2.739,0,1,1,2.739,0" fill="#4c78a8" stroke-width="2" opacity="1"/><path aria-label="date: Feb 23; value: 25" role="graphics-symbol" aria-roledescription="point" transform="translate(88.46153846153847,11.538461538461531)" d="M2.739,0A2.739,2.739,0,1,1,-2.739,0A2.739,2.739,0,1,1,2.739,0" fill="#4c78a8" stroke-width="2" opacity="1"/><path aria-label="date: Feb 24; value: 25" role="graphics-symbol" aria-roledescription="point" transform="translate(92.3076923076923,11.538461538461531)" d="M2.739,0A2.739,2.739,0,1,1,-2.739,0A2.739,2.739,0,1,1,2.739,0" fill="#4c78a8" stroke-width="2" opacity="1"/><path aria-label="date: Feb 25; value: 25" role="graphics-symbol" aria-roledescription="point" transform="translate(96.15384615384616,11.538461538461531)" d="M2.739,0A2.739,2.739,0,1,1,-2.739,0A2.739,2.739,0,1,1,2.739,0" fill="#4c78a8" stroke-width="2" opacity="1"/><path aria-label="date: Feb 26; value: 25" role="graphics-symbol" aria-roledescription="point" transform="translate(100,11.538461538461531)" d="M2.739,0A2.739,2.739,0,1,1,-2.739,0A2.739,2.739,0,1,1,2.739,0" fill="#4c78a8" stroke-width="2" opacity="1"/><path aria-label="date: Feb 27; value: 25" role="graphics-symbol" aria-roledescription="point" transform="translate(103.84615384615384,11.538461538461531)" d="M2.739,0A2.739,2.739,0,1,1,-2.739,0A2.739,2.739,0,1,1,2.739,0" fill="#4c78a8" stroke-width="2" opacity="1"/><path aria-label="date: Feb 28; value: 25" role="graphics-symbol" aria-roledescription="point" transform="translate(107.6923076923077,11.538461538461531)" d="M2.739,0A2.739,2.739,0,1,1,-2.739,0A2.739,2.739,0,1,1,2.739,0" fill="#4c78a8" stroke-width="2" opacity="1"/><path aria-label="date: Mar 01; value: 25" role="graphics-symbol" aria-roledescription="point" transform="translate(111.53846153846155,11.538461538461531)" d="M2.739,0A2.739,2.739,0,1,1,-2.739,0A2.739,2.739,0,1,1,2.739,0" fill="#4c78a8" stroke-width="2" opacity="1"/><path aria-label="date: Mar 02; value: 25" role="graphics-symbol" aria-roledescription="point" transform="translate(115.38461538461539,11.538461538461531)" d="M2.739,0A2.739,2.739,0,1,1,-2.739,0A2.739,2.739,0,1,1,2.739,0" fill="#4c78a8" stroke-width="2" opacity="1"/><path aria-label="date: Mar 03; value: 25" role="graphics-symbol" aria-roledescription="point" transform="translate(119.23076923076923,11.538461538461531)" d="M2.739,0A2.739,2.739,0,1,1,-2.739,0A2.739,2.739,0,1,1,2.739,0" fill="#4c78a8" stroke-width="2" opacity="1"/><path aria-label="date: Mar 04; value: 25" role="graphics-symbol" aria-roledescription="point" transform="translate(123.07692307692307,11.538461538461531)" d="M2.739,0A2.739,2.739,0,1,1,-2.739,0A2.739,2.739,0,1,1,2.739,0" fill="#4c78a8" stroke-width="2" opacity="1"/><path aria-label="date: Mar 05; value: 25" role="graphics-symbol" aria-roledescription="point" transform="translate(126.92307692307692,11.538461538461531)" d="M2.739,0A2.739,2.739,0,1,1,-2.739,0A2.739,2.739,0,1,1,2.739,0" fill="#4c78a8" stroke-width="2" opacity="1"/><path aria-label="date: Mar 06; value: 25" role="graphics-symbol" aria-roledescription="point" transform="translate(130.76923076923077,11.538461538461531)" d="M2.739,0A2.739,2.739,0,1,1,-2.739,0A2.739,2.739,0,1,1,2.739,0" fill="#4c78a8" stroke-width="2" opacity="1"/><path aria-label="date: Mar 07; value: 25" role="graphics-symbol" aria-roledescription="point" transform="translate(134.6153846153846,11.538461538461531)" d="M2.739,0A2.739,2.739,0,1,1,-2.739,0A2.739,2.739,0,1,1,2.739,0" fill="#4c78a8" stroke-width="2" opacity="1"/><path aria-label="date: Mar 08; value: 25" role="graphics-symbol" aria-roledescription="point" transform="translate(138.46153846153848,11.538461538461531)" d="M2.739,0A2.739,2.739,0,1,1,-2.739,0A2.739,2.739,0,1,1,2.739,0" fill="#4c78a8" stroke-width="2" opacity="1"/><path aria-label="date: Mar 09; value: 25" role="graphics-symbol" aria-roledescription="point" transform="translate(142.3076923076923,11.538461538461531)" d="M2.739,0A2.739,2.739,0,1,1,-2.739,0A2.739,2.739,0,1,1,2.739,0" fill="#4c78a8" stroke-width="2" opacity="1"/><path aria-label="date: Mar 10; value: 25" role="graphics-symbol" aria-roledescription="point" transform="translate(146.15384615384616,11.538461538461531)" d="M2.739,0A2.739,2.739,0,1,1,-2.739,0A2.739,2.739,0,1,1,2.739,0" fill="#4c78a8" stroke-width="2" opacity="1"/><path aria-label="date: Mar 11; value: 25" role="graphics-symbol" aria-roledescription="point" transform="translate(150,11.538461538461531)" d="M2.739,0A2.739,2.739,0,1,1,-2.739,0A2.739,2.739,0,1,1,2.739,0" fill="#4c78a8" stroke-width="2" opacity="1"/><path aria-label="date: Mar 12; value: 25" role="graphics-symbol" aria-roledescription="point" transform="translate(153.84615384615384,11.538461538461531)" d="M2.739,0A2.739,2.739,0,1,1,-2.739,0A2.739,2.739,0,1,1,2.739,0" fill="#4c78a8" stroke-width="2" opacity="1"/><path aria-label="date: Mar 13; value: 25" role="graphics-symbol" aria-roledescription="point" transform="translate(157.6923076923077,11.538461538461531)" d="M2.739,0A2.739,2.739,0,1,1,-2.739,0A2.739,2.739,0,1,1,2.739,0" fill="#4c78a8" stroke-width="2" opacity="1"/><path aria-label="date: Mar 14; value: 25" role="graphics-symbol" aria-roledescription="point" transform="translate(161.53846153846152,11.538461538461531)" d="M2.739,0A2.739,2.739,0,1,1,-2.739,0A2.739,2.739,0,1,1,2.739,0" fill="#4c78a8" stroke-width="2" opacity="1"/><path aria-label="date: Mar 15; value: 25" role="graphics-symbol" aria-roledescription="point" transform="translate(165.3846153846154,11.538461538461531)" d="M2.739,0A2.739,2.739,0,1,1,-2.739,0A2.739,2.739,0,1,1,2.739,0" fill="#4c78a8" stroke-width="2" opacity="1"/><path aria-label="date: Mar 16; value: 25" role="graphics-symbol" aria-roledescription="point" transform="translate(169.23076923076923,11.538461538461531)" d="M2.739,0A2.739,2.739,0,1,1,-2.739,0A2.739,2.739,0,1,1,2.739,0" fill="#4c78a8" stroke-width="2" opacity="1"/><path aria-label="date: Mar 17; value: 25" role="graphics-symbol" aria-roledescription="point" transform="translate(173.07692307692307,11.538461538461531)" d="M2.739,0A2.739,2.739,0,1,1,-2.739,0A2.739,2.739,0,1,1,2.739,0" fill="#4c78a8" stroke-width="2" opacity="1"/><path aria-label="date: Mar 18; value: 25" role="graphics-symbol" aria-roledescription="point" transform="translate(176.92307692307693,11.538461538461531)" d="M2.739,0A2.739,2.739,0,1,1,-2.739,0A2.739,2.739,0,1,1,2.739,0" fill="#4c78a8" stroke-width="2" opacity="1"/><path aria-label="date: Mar 19; value: 25" role="graphics-symbol" aria-roledescription="point" transform="translate(180.76923076923077,11.538461538461531)" d="M2.739,0A2.739,2.739,0,1,1,-2.739,0A2.739,2.739,0,1,1,2.739,0" fill="#4c78a8" stroke-width="2" opacity="1"/><path aria-label="date: Mar 20; value: 25" role="graphics-symbol" aria-roledescription="point" transform="translate(184.6153846153846,11.538461538461531)" d="M2.739,0A2.739,2.739,0,1,1,-2.739,0A2.739,2.739,0,1,1,2.739,0" fill="#4c78a8" stroke-width="2" opacity="1"/><path aria-label="date: Mar 21; value: 25" role="graphics-symbol" aria-roledescription="point" transform="translate(188.46153846153845,11.538461538461531)" d="M2.739,0A2.739,2.739,0,1,1,-2.739,0A2.739,2.739,0,1,1,2.739,0" fill="#4c78a8" stroke-width="2" opacity="1"/><path aria-label="date: Mar 22; value: 25" role="graphics-symbol" aria-roledescription="point" transform="translate(192.30769230769232,11.538461538461531)" d="M2.739,0A2.739,2.739,0,1,1,-2.739,0A2.739,2.739,0,1,1,2.739,0" fill="#4c78a8" stroke-width="2" opacity="1"/><path aria-label="date: Mar 23; value: 25" role="graphics-symbol" aria-roledescription="point" transform="translate(196.15384615384616,11.538461538461531)" d="M2.739,0A2.739,2.739,0,1,1,-2.739,0A2.739,2.739,0,1,1,2.739,0" fill="#4c78a8" stroke-width="2" opacity="1"/><path aria-label="date: Mar 24; value: 25" role="graphics-symbol" aria-roledescription="point" transform="translate(200,11.538461538461531)" d="M2.739,0A2.739,2.739,0,1,1,-2.739,0A2.739,2.739,0,1,1,2.739,0" fill="#4c78a8" stroke-width="2" opacity="1"/><path aria-label="date: Mar 25; value: 25" role="graphics-symbol" aria-roledescription="point" transform="translate(203.84615384615387,11.538461538461531)" d="M2.739,0A2.739,2.739,0,1,1,-2.739,0A2.739,2.739,0,1,1,2.739,0" fill="#4c78a8" stroke-width="2" opacity="1"/><path aria-label="date: Mar 26; value: 25" role="graphics-symbol" aria-roledescription="point" transform="translate(207.69230769230768,11.538461538461531)" d="M2.739,0A2.739,2.739,0,1,1,-2.739,0A2.739,2.739,0,1,1,2.739,0" fill="#4c78a8" stroke-width="2" opacity="1"/><path aria-label="date: Mar 27; value: 25" role="graphics-symbol" aria-roledescription="point" transform="translate(211.53846153846155,11.538461538461531)" d="M2.739,0A2.739,2.739,0,1,1,-2.739,0A2.739,2.739,0,1,1,2.739,0" fill="#4c78a8" stroke-width="2" opacity="1"/><path aria-label="date: Mar 28; value: 25" role="graphics-symbol" aria-roledescription="point" transform="translate(215.3846153846154,11.538461538461531)" d="M2.739,0A2.739,2.739,0,1,1,-2.739,0A2.739,2.739,0,1,1,2.739,0" fill="#4c78a8" stroke-width="2" opacity="1"/><path aria-label="date: Mar 29; value: 25" role="graphics-symbol" aria-roledescription="point" transform="translate(219.23076923076923,11.538461538461531)" d="M2.739,0A2.739,2.739,0,1,1,-2.739,0A2.739,2.739,0,1,1,2.739,0" fill="#4c78a8" stroke-width="2" opacity="1"/><path aria-label="date: Mar 30; value: 25" role="graphics-symbol" aria-roledescription="point" transform="translate(223.0769230769231,11.538461538461531)" d="M2.739,0A2.739,2.739,0,1,1,-2.739,0A2.739,2.739,0,1,1,2.739,0" fill="#4c78a8" stroke-width="2" opacity="1"/><path aria-label="date: Mar 31; value: 25" role="graphics-symbol" aria-roledescription="point" transform="translate(226.9230769230769,11.538461538461531)" d="M2.739,0A2.739,2.739,0,1,1,-2.739,0A2.739,2.739,0,1,1,2.739,0" fill="#4c78a8" stroke-width="2" opacity="1"/><path aria-label="date: Apr 01; value: 25" role="graphics-symbol" aria-roledescription="point" transform="translate(230.76923076923077,11.538461538461531)" d="M2.739,0A2.739,2.739,0,1,1,-2.739,0A2.739,2.739,0,1,1,2.739,0" fill="#4c78a8" stroke-width="2" opacity="1"/><path aria-label="date: Apr 02; value: 25" role="graphics-symbol" aria-roledescription="point" transform="translate(234.6153846153846,11.538461538461531)" d="M2.739,0A2.739,2.739,0,1,1,-2.739,0A2.739,2.739,0,1,1,2.739,0" fill="#4c78a8" stroke-width="2" opacity="1"/><path aria-label="date: Apr 03; value: 25" role="graphics-symbol" aria-roledescription="point" transform="translate(238.46153846153845,11.538461538461531)" d="M2.739,0A2.739,2.739,0,1,1,-2.739,0A2.739,2.739,0,1,1,2.739,0" fill="#4c78a8" stroke-width="2" opacity="1"/><path aria-label="date: Apr 04; value: 25" role="graphics-symbol" aria-roledescription="point" transform="translate(242.30769230769232,11.538461538461531)" d="M2.739,0A2.739,2.739,0,1,1,-2.739,0A2.739,2.739,0,1,1,2.739,0" fill="#4c78a8" stroke-width="2" opacity="1"/><path aria-label="date: Apr 05; value: 25" role="graphics-symbol" aria-roledescription="point" transform="translate(246.15384615384613,11.538461538461531)" d="M2.739,0A2.739,2.739,0,1,1,-2.739,0A2.739,2.739,0,1,1,2.739,0" fill="#4c78a8" stroke-width="2" opacity="1"/><path aria-label="date: Apr 06; value: 25" role="graphics-symbol" aria-roledescription="point" transform="translate(250,11.538461538461531)" d="M2.739,0A2.739,2.739,0,1,1,-2.739,0A2.739,2.739,0,1,1,2.739,0" fill="#4c78a8" stroke-width="2" opacity="1"/><path aria-label="date: Apr 07; value: 25" role="graphics-symbol" aria-roledescription="point" transform="translate(253.84615384615384,11.538461538461531)" d="M2.739,0A2.739,2.739,0,1,1,-2.739,0A2.739,2.739,0,1,1,2.739,0" fill="#4c78a8" stroke-width="2" opacity="1"/><path aria-label="date: Apr 08; value: 25" role="graphics-symbol" aria-roledescription="point" transform="translate(257.6923076923077,11.538461538461531)" d="M2.739,0A2.739,2.739,0,1,1,-2.739,0A2.739,2.739,0,1,1,2.739,0" fill="#4c78a8" stroke-width="2" opacity="1"/><path aria-label="date: Apr 09; value: 25" role="graphics-symbol" aria-roledescription="point" transform="translate(261.53846153846155,11.538461538461531)" d="M2.739,0A2.739,2.739,0,1,1,-2.739,0A2.739,2.739,0,1,1,2.739,0" fill="#4c78a8" stroke-width="2" opacity="1"/><path aria-label="date: Apr 10; value: 25" role="graphics-symbol" aria-roledescription="point" transform="translate(265.38461538461536,11.538461538461531)" d="M2.739,0A2.739,2.739,0,1,1,-2.739,0A2.739,2.739,0,1,1,2.739,0" fill="#4c78a8" stroke-width="2" opacity="1"/><path aria-label="date: Apr 11; value: 25" role="graphics-symbol" aria-roledescription="point" transform="translate(269.2307692307692,11.538461538461531)" d="M2.739,0A2.739,2.739,0,1,1,-2.739,0A2.739,2.739,0,1,1,2.739,0" fill="#4c78a8" stroke-width="2" opacity="1"/><path aria-label="date: Apr 12; value: 25" role="graphics-symbol" aria-roledescription="point" transform="translate(273.0769230769231,11.538461538461531)" d="M2.739,0A2.739,2.739,0,1,1,-2.739,0A2.739,2.739,0,1,1,2.739,0" fill="#4c78a8" stroke-width="2" opacity="1"/><path aria-label="date: Apr 13; value: 25" role="graphics-symbol" aria-roledescription="point" transform="translate(276.92307692307696,11.538461538461531)" d="M2.739,0A2.739,2.739,0,1,1,-2.739,0A2.739,2.739,0,1,1,2.739,0" fill="#4c78a8" stroke-width="2" opacity="1"/><path aria-label="date: Apr 14; value: 25" role="graphics-symbol" aria-roledescription="point" transform="translate(280.7692307692308,11.538461538461531)" d="M2.739,0A2.739,2.739,0,1,1,-2.739,0A2.739,2.739,0,1,1,2.739,0" fill="#4c78a8" stroke-width="2" opacity="1"/><path aria-label="date: Apr 15; value: 25" role="graphics-symbol" aria-roledescription="point" transform="translate(284.6153846153846,11.538461538461531)" d="M2.739,0A2.739,2.739,0,1,1,-2.739,0A2.739,2.739,0,1,1,2.739,0" fill="#4c78a8" stroke-width="2" opacity="1"/><path aria-label="date: Apr 16; value: 25" role="graphics-symbol" aria-roledescription="point" transform="translate(288.46153846153845,11.538461538461531)" d="M2.739,0A2.739,2.739,0,1,1,-2.739,0A2.739,2.739,0,1,1,2.739,0" fill="#4c78a8" stroke-width="2" opacity="1"/><path aria-label="date: Apr 17; value: 25" role="graphics-symbol" aria-roledescription="point" transform="translate(292.3076923076923,11.538461538461531)" d="M2.739,0A2.739,2.739,0,1,1,-2.739,0A2.739,2.739,0,1,1,2.739,0" fill="#4c78a8" stroke-width="2" opacity="1"/><path aria-label="date: Apr 18; value: 25" role="graphics-symbol" aria-roledescription="point" transform="translate(296.1538461538462,11.538461538461531)" d="M2.739,0A2.739,2.739,0,1,1,-2.739,0A2.739,2.739,0,1,1,2.739,0" fill="#4c78a8" stroke-width="2" opacity="1"/><path aria-label="date: Apr 19; value: 25" role="graphics-symbol" aria-roledescription="point" transform="translate(300,11.538461538461531)" d="M2.739,0A2.739,2.739,0,1,1,-2.739,0A2.739,2.739,0,1,1,2.739,0" fill="#4c78a8" stroke-width="2" opacity="1"/></g><g class="mark-group role-title"><g transform="translate(150,-17)"><path class="background" aria-hidden="true" d="M0,0h0v0h0Z" pointer-events="none"/><g><g class="mark-text role-title-text" role="graphics-symbol" aria-roledescription="title" aria-label="Title text 'Burndown chart sprint'" pointer-events="none"><text text-anchor="middle" transform="translate(0,10)" font-family="sans-serif" font-size="13px" font-weight="bold" fill="#000" opacity="1">Burndown chart sprint</text></g></g><path class="foreground" aria-hidden="true" d="" pointer-events="none" display="none"/></g></g></g><path class="foreground" aria-hidden="true" d="" display="none"/></g></g></g></svg>