<svg xmlns="http://www.w3.org/2000/svg" xmlns:xlink="http://www.w3.org/1999/xlink" version="1.1" class="marks" width="272" height="264" viewBox="0 0 272 264"><rect width="272" height="264" fill="white"/><g fill="none" stroke-miterlimit="10" transform="translate(51,27)"><g class="mark-group role-frame root" role="graphics-object" aria-roledescription="group mark container"><g transform="translate(0,0)"><path class="background" aria-hidden="true" d="M0.5,0.5h200v200h-200Z" stroke="#ddd"/><g><g class="mark-group role-axis" aria-hidden="true"><g transform="translate(0.5,200.5)"><path class="background" aria-hidden="true" d="M0,0h0v0h0Z" pointer-events="none"/><g><g class="mark-rule role-axis-grid" pointer-events="none"><line transform="translate(9,-200)" x2="0" y2="200" stroke="#ddd" stroke-width="1" opacity="1"/><line transform="translate(70,-200)" x2="0" y2="200" stroke="#ddd" stroke-width="1" opacity="1"/><line transform="translate(130,-200)" x2="0" y2="200" stroke="#ddd" stroke-width="1" opacity="1"/><line transform="translate(191,-200)" x2="0" y2="200" stroke="#ddd" stroke-width="1" opacity="1"/></g></g><path class="foreground" aria-hidden="true" d="" pointer-events="none" display="none"/></g></g><g class="mark-group role-axis" aria-hidden="true"><g transform="translate(0.5,0.5)"><path class="background" aria-hidden="true" d="M0,0h0v0h0Z" pointer-events="none"/><g><g class="mark-rule role-axis-grid" pointer-events="none"><line transform="translate(0,200)" x2="200" y2="0" stroke="#ddd" stroke-width="1" opacity="1"/><line transform="translate(0,171)" x2="200" y2="0" stroke="#ddd" stroke-width="1" opacity="1"/><line transform="translate(0,143)" x2="200" y2="0" stroke="#ddd" stroke-width="1" opacity="1"/><line transform="translate(0,114)" x2="200" y2="0" stroke="#ddd" stroke-width="1" opacity="1"/><line transform="translate(0,86)" x2="200" y2="0" stroke="#ddd" stroke-width="1" opacity="1"/><line transform="translate(0,57)" x2="200" y2="0" stroke="#ddd" stroke-width="1" opacity="1"/><line transform="translate(0,29)" x2="200" y2="0" stroke="#ddd" stroke-width="1" opacity="1"/><line transform="translate(0,0)" x2="200" y2="0" stroke="#ddd" stroke-width="1" opacity="1"/></g></g><path class="foreground" aria-hidden="true" d="" pointer-events="none" display="none"/></g></g><g class="mark-group role-axis" role="graphics-symbol" aria-roledescription="axis" aria-label="X-axis titled 'date' for a time scale with values from December 21 to January 13"><g transform="translate(0.5,200.5)"><path class="background" aria-hidden="true" d="M0,0h0v0h0Z" pointer-events="none"/><g><g class="mark-rule role-axis-tick" pointer-events="none"><line transform="translate(9,0)" x2="0" y2="5" stroke="#888" stroke-width="1" opacity="1"/><line transform="translate(70,0)" x2="0" y2="5" stroke="#888" stroke-width="1" opacity="1"/><line transform="translate(130,0)" x2="0" y2="5" stroke="#888" stroke-width="1" opacity="1"/><line transform="translate(191,0)" x2="0" y2="5" stroke="#888" stroke-width="1" opacity="1"/></g><g class="mark-text role-axis-label" pointer-events="none"><text text-anchor="middle" transform="translate(8.695652173913043,15)" font-family="sans-serif" font-size="10px" fill="#000" opacity="1">Dec 22</text><text text-anchor="middle" transform="translate(69.56521739130434,15)" font-family="sans-serif" font-size="10px" fill="#000" opacity="1">Dec 29</text><text text-anchor="middle" transform="translate(130.43478260869566,15)" font-family="sans-serif" font-size="10px" fill="#000" opacity="1">Jan 05</text><text text-anchor="middle" transform="translate(191.30434782608697,15)" font-family="sans-serif" font-size="10px" fill="#000" opacity="1">Jan 12</text></g><g class="mark-rule role-axis-domain" pointer-events="none"><line transform="translate(0,0)" x2="200" y2="0" stroke="#888" stroke-width="1" opacity="1"/></g><g class="mark-text role-axis-title" pointer-events="none"><text text-anchor="middle" transform="translate(100,30)" font-family="sans-serif" font-size="11px" font-weight="bold" fill="#000" opacity="1">date</text></g></g><path class="foreground" aria-hidden="true" d="" pointer-events="none" display="none"/></g></g><g class="mark-group role-axis" role="graphics-symbol" aria-roledescription="axis" aria-label="Y-axis titled 'value' for a linear scale with values from 0 to 140"><g transform="translate(0.5,0.5)"><path class="background" aria-hidden="true" d="M0,0h0v0h0Z" pointer-events="none"/><g><g class="mark-rule role-axis-tick" pointer-events="none"><line transform="translate(0,200)" x2="-5" y2="0" stroke="#888" stroke-width="1" opacity="1"/><line transform="translate(0,171)" x2="-5" y2="0" stroke="#888" stroke-width="1" opacity="1"/><line transform="translate(0,143)" x2="-5" y2="0" stroke="#888" stroke-width="1" opacity="1"/><line transform="translate(0,114)" x2="-5" y2="0" stroke="#888" stroke-width="1" opacity="1"/><line transform="translate(0,86)" x2="-5" y2="0" stroke="#888" stroke-width="1" opacity="1"/><line transform="translate(0,57)" x2="-5" y2="0" stroke="#888" stroke-width="1" opacity="1"/><line transform="translate(0,29)" x2="-5" y2="0" stroke="#888" stroke-width="1" opacity="1"/><line transform="translate(0,0)" x2="-5" y2="0" stroke="#888" stroke-width="1" opacity="1"/></g><g class="mark-text role-axis-label" pointer-events="none"><text text-anchor="end" transform="translate(-7,203)" font-family="sans-serif" font-size="10px" fill="#000" opacity="1">0</text><text text-anchor="end" transform="translate(-7,174.42857142857144)" font-family="sans-serif" font-size="10px" fill="#000" opacity="1">20</text><text text-anchor="end" transform="translate(-7,145.85714285714286)" font-family="sans-serif" font-size="10px" fill="#000" opacity="1">40</text><text text-anchor="end" transform="translate(-7,117.28571428571428)" font-family="sans-serif" font-size="10px" fill="#000" opacity="1">60</text><text text-anchor="end" transform="translate(-7,88.71428571428572)" font-family="sans-serif" font-size="10px" fill="#000" opacity="1">80</text><text text-anchor="end" transform="translate(-7,60.14285714285714)" font-family="sans-serif" font-size="10px" fill="#000" opacity="1">100</text><text text-anchor="end" transform="translate(-7,31.57142857142858)" font-family="sans-serif" font-size="10px" fill="#000" opacity="1">120</text><text text-anchor="end" transform="translate(-7,3)" font-family="sans-serif" font-size="10px" fill="#000" opacity="1">140</text></g><g class="mark-rule role-axis-domain" pointer-events="none"><line transform="translate(0,200)" x2="0" y2="-200" stroke="#888" stroke-width="1" opacity="1"/></g><g class="mark-text role-axis-title" pointer-events="none"><text text-anchor="middle" transform="translate(-35,100) rotate(-90) translate(0,-2)" font-family="sans-serif" font-size="11px" font-weight="bold" fill="#000" opacity="1">value</text></g></g><path class="foreground" aria-hidden="true" d="" pointer-events="none" display="none"/></g></g><g class="mark-line role-mark layer_0_layer_0_marks" role="graphics-object" aria-roledescription="line mark container"><path aria-label="date: Dec 21; value: 140" role="graphics-symbol" aria-roledescription="line mark" d="M0,0L8.696,0L17.391,0L26.087,0L34.783,0L43.478,0L52.174,0L60.87,34.286L69.565,34.286L78.261,34.286L86.957,57.143L95.652,58.571L104.348,55.714L113.043,84.286L121.739,90L130.435,90L139.13,82.857L147.826,85.714L156.522,97.143L165.217,115.714L173.913,121.429L182.609,147.143L191.304,147.143L200,147.143" stroke="#4c78a8" stroke-width="2"/></g><g class="mark-symbol role-mark layer_0_layer_1_marks" role="graphics-object" aria-roledescription="symbol mark container"><path aria-label="date: Dec 21; value: 140" role="graphics-symbol" aria-roledescription="point" transform="translate(0,0)" d="M2.739,0A2.739,2.739,0,1,1,-2.739,0A2.739,2.739,0,1,1,2.739,0" fill="#4c78a8" stroke-width="2" opacity="1"/><path aria-label="date: Dec 22; value: 140" role="graphics-symbol" aria-roledescription="point" transform="translate(8.695652173913043,0)" d="M2.739,0A2.739,2.739,0,1,1,-2.739,0A2.739,2.739,0,1,1,2.739,0" fill="#4c78a8" stroke-width="2" opacity="1"/><path aria-label="date: Dec 23; value: 140" role="graphics-symbol" aria-roledescription="point" transform="translate(17.391304347826086,0)" d="M2.739,0A2.739,2.739,0,1,1,-2.739,0A2.739,2.739,0,1,1,2.739,0" fill="#4c78a8" stroke-width="2" opacity="1"/><path aria-label="date: Dec 24; value: 140" role="graphics-symbol" aria-roledescription="point" transform="translate(26.08695652173913,0)" d="M2.739,0A2.739,2.739,0,1,1,-2.739,0A2.739,2.739,0,1,1,2.739,0" fill="#4c78a8" stroke-width="2" opacity="1"/><path aria-label="date: Dec 25; value: 140" role="graphics-symbol" aria-roledescription="point" transform="translate(34.78260869565217,0)" d="M2.739,0A2.739,2.739,0,1,1,-2.739,0A2.739,2.739,0,1,1,2.739,0" fill="#4c78a8" stroke-width="2" opacity="1"/><path aria-label="date: Dec 26; value: 140" role="graphics-symbol" aria-roledescription="point" transform="translate(43.47826086956522,0)" d="M2.739,0A2.739,2.739,0,1,1,-2.739,0A2.739,2.739,0,1,1,2.739,0" fill="#4c78a8" stroke-width="2" opacity="1"/><path aria-label="date: Dec 27; value: 140" role="graphics-symbol" aria-roledescription="point" transform="translate(52.17391304347826,0)" d="M2.739,0A2.739,2.739,0,1,1,-2.739,0A2.739,2.739,0,1,1,2.739,0" fill="#4c78a8" stroke-width="2" opacity="1"/><path aria-label="date: Dec 28; value: 116" role="graphics-symbol" aria-roledescription="point" transform="translate(60.86956521739131,34.28571428571428)" d="M2.739,0A2.739,2.739,0,1,1,-2.739,0A2.739,2.739,0,1,1,2.739,0" fill="#4c78a8" stroke-width="2" opacity="1"/><path aria-label="date: Dec 29; value: 116" role="graphics-symbol" aria-roledescription="point" transform="translate(69.56521739130434,34.28571428571428)" d="M2.739,0A2.739,2.739,0,1,1,-2.739,0A2.739,2.739,0,1,1,2.739,0" fill="#4c78a8" stroke-width="2" opacity="1"/><path aria-label="date: Dec 30; value: 116" role="graphics-symbol" aria-roledescription="point" transform="translate(78.26086956521739,34.28571428571428)" d="M2.739,0A2.739,2.739,0,1,1,-2.739,0A2.739,2.739,0,1,1,2.739,0" fill="#4c78a8" stroke-width="2" opacity="1"/><path aria-label="date: Dec 31; value: 100" role="graphics-symbol" aria-roledescription="point" transform="translate(86.95652173913044,57.14285714285714)" d="M2.739,0A2.739,2.739,0,1,1,-2.739,0A2.739,2.739,0,1,1,2.739,0" fill="#4c78a8" stroke-width="2" opacity="1"/><path aria-label="date: Jan 01; value: 99" role="graphics-symbol" aria-roledescription="point" transform="translate(95.65217391304348,58.57142857142856)" d="M2.739,0A2.739,2.739,0,1,1,-2.739,0A2.739,2.739,0,1,1,2.739,0" fill="#4c78a8" stroke-width="2" opacity="1"/><path aria-label="date: Jan 02; value: 101" role="graphics-symbol" aria-roledescription="point" transform="translate(104.34782608695652,55.714285714285715)" d="M2.739,0A2.739,2.739,0,1,1,-2.739,0A2.739,2.739,0,1,1,2.739,0" fill="#4c78a8" stroke-width="2" opacity="1"/><path aria-label="date: Jan 03; value: 81" role="graphics-symbol" aria-roledescription="point" transform="translate(113.04347826086956,84.28571428571428)" d="M2.739,0A2.739,2.739,0,1,1,-2.739,0A2.739,2.739,0,1,1,2.739,0" fill="#4c78a8" stroke-width="2" opacity="1"/><path aria-label="date: Jan 04; value: 77" role="graphics-symbol" aria-roledescription="point" transform="translate(121.73913043478262,89.99999999999999)" d="M2.739,0A2.739,2.739,0,1,1,-2.739,0A2.739,2.739,0,1,1,2.739,0" fill="#4c78a8" stroke-width="2" opacity="1"/><path aria-label="date: Jan 05; value: 77" role="graphics-symbol" aria-roledescription="point" transform="translate(130.43478260869566,89.99999999999999)" d="M2.739,0A2.739,2.739,0,1,1,-2.739,0A2.739,2.739,0,1,1,2.739,0" fill="#4c78a8" stroke-width="2" opacity="1"/><path aria-label="date: Jan 06; value: 82" role="graphics-symbol" aria-roledescription="point" transform="translate(139.1304347826087,82.85714285714285)" d="M2.739,0A2.739,2.739,0,1,1,-2.739,0A2.739,2.739,0,1,1,2.739,0" fill="#4c78a8" stroke-width="2" opacity="1"/><path aria-label="date: Jan 07; value: 80" role="graphics-symbol" aria-roledescription="point" transform="translate(147.82608695652172,85.71428571428572)" d="M2.739,0A2.739,2.739,0,1,1,-2.739,0A2.739,2.739,0,1,1,2.739,0" fill="#4c78a8" stroke-width="2" opacity="1"/><path aria-label="date: Jan 08; value: 72" role="graphics-symbol" aria-roledescription="point" transform="translate(156.52173913043478,97.14285714285715)" d="M2.739,0A2.739,2.739,0,1,1,-2.739,0A2.739,2.739,0,1,1,2.739,0" fill="#4c78a8" stroke-width="2" opacity="1"/><path aria-label="date: Jan 09; value: 59" role="graphics-symbol" aria-roledescription="point" transform="translate(165.2173913043478,115.71428571428571)" d="M2.739,0A2.739,2.739,0,1,1,-2.739,0A2.739,2.739,0,1,1,2.739,0" fill="#4c78a8" stroke-width="2" opacity="1"/><path aria-label="date: Jan 10; value: 55" role="graphics-symbol" aria-roledescription="point" transform="translate(173.91304347826087,121.42857142857144)" d="M2.739,0A2.739,2.739,0,1,1,-2.739,0A2.739,2.739,0,1,1,2.739,0" fill="#4c78a8" stroke-width="2" opacity="1"/><path aria-label="date: Jan 11; value: 37" role="graphics-symbol" aria-roledescription="point" transform="translate(182.6086956521739,147.14285714285717)" d="M2.739,0A2.739,2.739,0,1,1,-2.739,0A2.739,2.739,0,1,1,2.739,0" fill="#4c78a8" stroke-width="2" opacity="1"/><path aria-label="date: Jan 12; value: 37" role="graphics-symbol" aria-roledescription="point" transform="translate(191.30434782608697,147.14285714285717)" d="M2.739,0A2.739,2.739,0,1,1,-2.739,0A2.739,2.739,0,1,1,2.739,0" fill="#4c78a8" stroke-width="2" opacity="1"/><path aria-label="date: Jan 13; value: 37" role="graphics-symbol" aria-roledescription="point" transform="translate(200,147.14285714285717)" d="M2.739,0A2.739,2.739,0,1,1,-2.739,0A2.739,2.739,0,1,1,2.739,0" fill="#4c78a8" stroke-width="2" opacity="1"/></g><g class="mark-group role-title"><g transform="translate(100,-22)"><path class="background" aria-hidden="true" d="M0,0h0v0h0Z" pointer-events="none"/><g><g class="mark-text role-title-text" role="graphics-symbol" aria-roledescription="title" aria-label="Title text 'Burndown chart sprint'" pointer-events="none"><text text-anchor="middle" transform="translate(0,10)" font-family="sans-serif" font-size="13px" font-weight="bold" fill="#000" opacity="1">Burndown chart sprint</text></g></g><path class="foreground" aria-hidden="true" d="" pointer-events="none" display="none"/></g></g></g><path class="foreground" aria-hidden="true" d="" display="none"/></g></g></g></svg>