<svg xmlns="http://www.w3.org/2000/svg" xmlns:xlink="http://www.w3.org/1999/xlink" version="1.1" class="marks" width="268" height="259" viewBox="0 0 268 259"><rect width="268" height="259" fill="white"/><g fill="none" stroke-miterlimit="10" transform="translate(43,22)"><g class="mark-group role-frame root" role="graphics-object" aria-roledescription="group mark container"><g transform="translate(0,0)"><path class="background" aria-hidden="true" d="M0.5,0.5h200v200h-200Z" stroke="#ddd"/><g><g class="mark-group role-axis" aria-hidden="true"><g transform="translate(0.5,200.5)"><path class="background" aria-hidden="true" d="M0,0h0v0h0Z" pointer-events="none"/><g><g class="mark-rule role-axis-grid" pointer-events="none"><line transform="translate(9,-200)" x2="0" y2="200" stroke="#ddd" stroke-width="1" opacity="1"/><line transform="translate(40,-200)" x2="0" y2="200" stroke="#ddd" stroke-width="1" opacity="1"/><line transform="translate(71,-200)" x2="0" y2="200" stroke="#ddd" stroke-width="1" opacity="1"/><line transform="translate(102,-200)" x2="0" y2="200" stroke="#ddd" stroke-width="1" opacity="1"/><line transform="translate(133,-200)" x2="0" y2="200" stroke="#ddd" stroke-width="1" opacity="1"/><line transform="translate(164,-200)" x2="0" y2="200" stroke="#ddd" stroke-width="1" opacity="1"/><line transform="translate(196,-200)" x2="0" y2="200" stroke="#ddd" stroke-width="1" opacity="1"/></g></g><path class="foreground" aria-hidden="true" d="" pointer-events="none" display="none"/></g></g><g class="mark-group role-axis" aria-hidden="true"><g transform="translate(0.5,0.5)"><path class="background" aria-hidden="true" d="M0,0h0v0h0Z" pointer-events="none"/><g><g class="mark-rule role-axis-grid" pointer-events="none"><line transform="translate(0,200)" x2="200" y2="0" stroke="#ddd" stroke-width="1" opacity="1"/><line transform="translate(0,162)" x2="200" y2="0" stroke="#ddd" stroke-width="1" opacity="1"/><line transform="translate(0,123)" x2="200" y2="0" stroke="#ddd" stroke-width="1" opacity="1"/><line transform="translate(0,85)" x2="200" y2="0" stroke="#ddd" stroke-width="1" opacity="1"/><line transform="translate(0,46)" x2="200" y2="0" stroke="#ddd" stroke-width="1" opacity="1"/><line transform="translate(0,8)" x2="200" y2="0" stroke="#ddd" stroke-width="1" opacity="1"/></g></g><path class="foreground" aria-hidden="true" d="" pointer-events="none" display="none"/></g></g><g class="mark-group role-axis" role="graphics-symbol" aria-roledescription="axis" aria-label="X-axis titled 'date' for a time scale with values from January 31 to March 17"><g transform="translate(0.5,200.5)"><path class="background" aria-hidden="true" d="M0,0h0v0h0Z" pointer-events="none"/><g><g class="mark-rule role-axis-tick" pointer-events="none"><line transform="translate(9,0)" x2="0" y2="5" stroke="#888" stroke-width="1" opacity="1"/><line transform="translate(40,0)" x2="0" y2="5" stroke="#888" stroke-width="1" opacity="1"/><line transform="translate(71,0)" x2="0" y2="5" stroke="#888" stroke-width="1" opacity="1"/><line transform="translate(102,0)" x2="0" y2="5" stroke="#888" stroke-width="1" opacity="1"/><line transform="translate(133,0)" x2="0" y2="5" stroke="#888" stroke-width="1" opacity="1"/><line transform="translate(164,0)" x2="0" y2="5" stroke="#888" stroke-width="1" opacity="1"/><line transform="translate(196,0)" x2="0" y2="5" stroke="#888" stroke-width="1" opacity="1"/></g><g class="mark-text role-axis-label" pointer-events="none"><text text-anchor="middle" transform="translate(8.88888888888889,15)" font-family="sans-serif" font-size="10px" fill="#000" opacity="1">Feb 02</text><text text-anchor="middle" transform="translate(40,15)" font-family="sans-serif" font-size="10px" fill="#000" opacity="0">Feb 09</text><text text-anchor="middle" transform="translate(71.11111111111111,15)" font-family="sans-serif" font-size="10px" fill="#000" opacity="1">Feb 16</text><text text-anchor="middle" transform="translate(102.22222222222221,15)" font-family="sans-serif" font-size="10px" fill="#000" opacity="0">Feb 23</text><text text-anchor="middle" transform="translate(133.33333333333331,15)" font-family="sans-serif" font-size="10px" fill="#000" opacity="1">Mar 02</text><text text-anchor="middle" transform="translate(164.44444444444443,15)" font-family="sans-serif" font-size="10px" fill="#000" opacity="0">Mar 09</text><text text-anchor="middle" transform="translate(195.55555555555554,15)" font-family="sans-serif" font-size="10px" fill="#000" opacity="1">Mar 16</text></g><g class="mark-rule role-axis-domain" pointer-events="none"><line transform="translate(0,0)" x2="200" y2="0" stroke="#888" stroke-width="1" opacity="1"/></g><g class="mark-text role-axis-title" pointer-events="none"><text text-anchor="middle" transform="translate(100,30)" font-family="sans-serif" font-size="11px" font-weight="bold" fill="#000" opacity="1">date</text></g></g><path class="foreground" aria-hidden="true" d="" pointer-events="none" display="none"/></g></g><g class="mark-group role-axis" role="graphics-symbol" aria-roledescription="axis" aria-label="Y-axis titled 'value' for a linear scale with values from 0 to 26"><g transform="translate(0.5,0.5)"><path class="background" aria-hidden="true" d="M0,0h0v0h0Z" pointer-events="none"/><g><g class="mark-rule role-axis-tick" pointer-events="none"><line transform="translate(0,200)" x2="-5" y2="0" stroke="#888" stroke-width="1" opacity="1"/><line transform="translate(0,162)" x2="-5" y2="0" stroke="#888" stroke-width="1" opacity="1"/><line transform="translate(0,123)" x2="-5" y2="0" stroke="#888" stroke-width="1" opacity="1"/><line transform="translate(0,85)" x2="-5" y2="0" stroke="#888" stroke-width="1" opacity="1"/><line transform="translate(0,46)" x2="-5" y2="0" stroke="#888" stroke-width="1" opacity="1"/><line transform="translate(0,8)" x2="-5" y2="0" stroke="#888" stroke-width="1" opacity="1"/></g><g class="mark-text role-axis-label" pointer-events="none"><text text-anchor="end" transform="translate(-7,203)" font-family="sans-serif" font-size="10px" fill="#000" opacity="1">0</text><text text-anchor="end" transform="translate(-7,164.53846153846155)" font-family="sans-serif" font-size="10px" fill="#000" opacity="1">5</text><text text-anchor="end" transform="translate(-7,126.07692307692308)" font-family="sans-serif" font-size="10px" fill="#000" opacity="1">10</text><text text-anchor="end" transform="translate(-7,87.61538461538463)" font-family="sans-serif" font-size="10px" fill="#000" opacity="1">15</text><text text-anchor="end" transform="translate(-7,49.153846153846146)" font-family="sans-serif" font-size="10px" fill="#000" opacity="1">20</text><text text-anchor="end" transform="translate(-7,10.692307692307686)" font-family="sans-serif" font-size="10px" fill="#000" opacity="1">25</text></g><g class="mark-rule role-axis-domain" pointer-events="none"><line transform="translate(0,200)" x2="0" y2="-200" stroke="#888" stroke-width="1" opacity="1"/></g><g class="mark-text role-axis-title" pointer-events="none"><text text-anchor="middle" transform="translate(-27,100) rotate(-90) translate(0,-2)" font-family="sans-serif" font-size="11px" font-weight="bold" fill="#000" opacity="1">value</text></g></g><path class="foreground" aria-hidden="true" d="" pointer-events="none" display="none"/></g></g><g class="mark-line role-mark layer_0_layer_0_marks" role="graphics-object" aria-roledescription="line mark container"><path aria-label="date: Jan 31; value: 25" role="graphics-symbol" aria-roledescription="line mark" d="M0,7.692L4.444,7.692L8.889,7.692L13.333,7.692L17.778,7.692L22.222,7.692L26.667,7.692L31.111,7.692L35.556,7.692L40,7.692L44.444,7.692L48.889,7.692L53.333,7.692L57.778,7.692L62.222,7.692L66.667,7.692L71.111,7.692L75.556,7.692L80,7.692L84.444,7.692L88.889,7.692L93.333,7.692L97.778,7.692L102.222,7.692L106.667,7.692L111.111,7.692L115.556,7.692L120,7.692L124.444,7.692L128.889,7.692L133.333,7.692L137.778,7.692L142.222,7.692L146.667,7.692L151.111,7.692L155.556,7.692L160,7.692L164.444,7.692L168.889,7.692L173.333,7.692L177.778,7.692L182.222,7.692L186.667,7.692L191.111,7.692L195.556,7.692L200,7.692" stroke="#4c78a8" stroke-width="2"/></g><g class="mark-symbol role-mark layer_0_layer_1_marks" role="graphics-object" aria-roledescription="symbol mark container"><path aria-label="date: Jan 31; value: 25" role="graphics-symbol" aria-roledescription="point" transform="translate(0,7.692307692307687)" d="M2.739,0A2.739,2.739,0,1,1,-2.739,0A2.739,2.739,0,1,1,2.739,0" fill="#4c78a8" stroke-width="2" opacity="1"/><path aria-label="date: Feb 01; value: 25" role="graphics-symbol" aria-roledescription="point" transform="translate(4.444444444444445,7.692307692307687)" d="M2.739,0A2.739,2.739,0,1,1,-2.739,0A2.739,2.739,0,1,1,2.739,0" fill="#4c78a8" stroke-width="2" opacity="1"/><path aria-label="date: Feb 02; value: 25" role="graphics-symbol" aria-roledescription="point" transform="translate(8.88888888888889,7.692307692307687)" d="M2.739,0A2.739,2.739,0,1,1,-2.739,0A2.739,2.739,0,1,1,2.739,0" fill="#4c78a8" stroke-width="2" opacity="1"/><path aria-label="date: Feb 03; value: 25" role="graphics-symbol" aria-roledescription="point" transform="translate(13.333333333333334,7.692307692307687)" d="M2.739,0A2.739,2.739,0,1,1,-2.739,0A2.739,2.739,0,1,1,2.739,0" fill="#4c78a8" stroke-width="2" opacity="1"/><path aria-label="date: Feb 04; value: 25" role="graphics-symbol" aria-roledescription="point" transform="translate(17.77777777777778,7.692307692307687)" d="M2.739,0A2.739,2.739,0,1,1,-2.739,0A2.739,2.739,0,1,1,2.739,0" fill="#4c78a8" stroke-width="2" opacity="1"/><path aria-label="date: Feb 05; value: 25" role="graphics-symbol" aria-roledescription="point" transform="translate(22.22222222222222,7.692307692307687)" d="M2.739,0A2.739,2.739,0,1,1,-2.739,0A2.739,2.739,0,1,1,2.739,0" fill="#4c78a8" stroke-width="2" opacity="1"/><path aria-label="date: Feb 06; value: 25" role="graphics-symbol" aria-roledescription="point" transform="translate(26.666666666666668,7.692307692307687)" d="M2.739,0A2.739,2.739,0,1,1,-2.739,0A2.739,2.739,0,1,1,2.739,0" fill="#4c78a8" stroke-width="2" opacity="1"/><path aria-label="date: Feb 07; value: 25" role="graphics-symbol" aria-roledescription="point" transform="translate(31.11111111111111,7.692307692307687)" d="M2.739,0A2.739,2.739,0,1,1,-2.739,0A2.739,2.739,0,1,1,2.739,0" fill="#4c78a8" stroke-width="2" opacity="1"/><path aria-label="date: Feb 08; value: 25" role="graphics-symbol" aria-roledescription="point" transform="translate(35.55555555555556,7.692307692307687)" d="M2.739,0A2.739,2.739,0,1,1,-2.739,0A2.739,2.739,0,1,1,2.739,0" fill="#4c78a8" stroke-width="2" opacity="1"/><path aria-label="date: Feb 09; value: 25" role="graphics-symbol" aria-roledescription="point" transform="translate(40,7.692307692307687)" d="M2.739,0A2.739,2.739,0,1,1,-2.739,0A2.739,2.739,0,1,1,2.739,0" fill="#4c78a8" stroke-width="2" opacity="1"/><path aria-label="date: Feb 10; value: 25" role="graphics-symbol" aria-roledescription="point" transform="translate(44.44444444444444,7.692307692307687)" d="M2.739,0A2.739,2.739,0,1,1,-2.739,0A2.739,2.739,0,1,1,2.739,0" fill="#4c78a8" stroke-width="2" opacity="1"/><path aria-label="date: Feb 11; value: 25" role="graphics-symbol" aria-roledescription="point" transform="translate(48.888888888888886,7.692307692307687)" d="M2.739,0A2.739,2.739,0,1,1,-2.739,0A2.739,2.739,0,1,1,2.739,0" fill="#4c78a8" stroke-width="2" opacity="1"/><path aria-label="date: Feb 12; value: 25" role="graphics-symbol" aria-roledescription="point" transform="translate(53.333333333333336,7.692307692307687)" d="M2.739,0A2.739,2.739,0,1,1,-2.739,0A2.739,2.739,0,1,1,2.739,0" fill="#4c78a8" stroke-width="2" opacity="1"/><path aria-label="date: Feb 13; value: 25" role="graphics-symbol" aria-roledescription="point" transform="translate(57.77777777777777,7.692307692307687)" d="M2.739,0A2.739,2.739,0,1,1,-2.739,0A2.739,2.739,0,1,1,2.739,0" fill="#4c78a8" stroke-width="2" opacity="1"/><path aria-label="date: Feb 14; value: 25" role="graphics-symbol" aria-roledescription="point" transform="translate(62.22222222222222,7.692307692307687)" d="M2.739,0A2.739,2.739,0,1,1,-2.739,0A2.739,2.739,0,1,1,2.739,0" fill="#4c78a8" stroke-width="2" opacity="1"/><path aria-label="date: Feb 15; value: 25" role="graphics-symbol" aria-roledescription="point" transform="translate(66.66666666666666,7.692307692307687)" d="M2.739,0A2.739,2.739,0,1,1,-2.739,0A2.739,2.739,0,1,1,2.739,0" fill="#4c78a8" stroke-width="2" opacity="1"/><path aria-label="date: Feb 16; value: 25" role="graphics-symbol" aria-roledescription="point" transform="translate(71.11111111111111,7.692307692307687)" d="M2.739,0A2.739,2.739,0,1,1,-2.739,0A2.739,2.739,0,1,1,2.739,0" fill="#4c78a8" stroke-width="2" opacity="1"/><path aria-label="date: Feb 17; value: 25" role="graphics-symbol" aria-roledescription="point" transform="translate(75.55555555555556,7.692307692307687)" d="M2.739,0A2.739,2.739,0,1,1,-2.739,0A2.739,2.739,0,1,1,2.739,0" fill="#4c78a8" stroke-width="2" opacity="1"/><path aria-label="date: Feb 18; value: 25" role="graphics-symbol" aria-roledescription="point" transform="translate(80,7.692307692307687)" d="M2.739,0A2.739,2.739,0,1,1,-2.739,0A2.739,2.739,0,1,1,2.739,0" fill="#4c78a8" stroke-width="2" opacity="1"/><path aria-label="date: Feb 19; value: 25" role="graphics-symbol" aria-roledescription="point" transform="translate(84.44444444444444,7.692307692307687)" d="M2.739,0A2.739,2.739,0,1,1,-2.739,0A2.739,2.739,0,1,1,2.739,0" fill="#4c78a8" stroke-width="2" opacity="1"/><path aria-label="date: Feb 20; value: 25" role="graphics-symbol" aria-roledescription="point" transform="translate(88.88888888888889,7.692307692307687)" d="M2.739,0A2.739,2.739,0,1,1,-2.739,0A2.739,2.739,0,1,1,2.739,0" fill="#4c78a8" stroke-width="2" opacity="1"/><path aria-label="date: Feb 21; value: 25" role="graphics-symbol" aria-roledescription="point" transform="translate(93.33333333333333,7.692307692307687)" d="M2.739,0A2.739,2.739,0,1,1,-2.739,0A2.739,2.739,0,1,1,2.739,0" fill="#4c78a8" stroke-width="2" opacity="1"/><path aria-label="date: Feb 22; value: 25" role="graphics-symbol" aria-roledescription="point" transform="translate(97.77777777777777,7.692307692307687)" d="M2.739,0A2.739,2.739,0,1,1,-2.739,0A2.739,2.739,0,1,1,2.739,0" fill="#4c78a8" stroke-width="2" opacity="1"/><path aria-label="date: Feb 23; value: 25" role="graphics-symbol" aria-roledescription="point" transform="translate(102.22222222222221,7.692307692307687)" d="M2.739,0A2.739,2.739,0,1,1,-2.739,0A2.739,2.739,0,1,1,2.739,0" fill="#4c78a8" stroke-width="2" opacity="1"/><path aria-label="date: Feb 24; value: 25" role="graphics-symbol" aria-roledescription="point" transform="translate(106.66666666666667,7.692307692307687)" d="M2.739,0A2.739,2.739,0,1,1,-2.739,0A2.739,2.739,0,1,1,2.739,0" fill="#4c78a8" stroke-width="2" opacity="1"/><path aria-label="date: Feb 25; value: 25" role="graphics-symbol" aria-roledescription="point" transform="translate(111.11111111111111,7.692307692307687)" d="M2.739,0A2.739,2.739,0,1,1,-2.739,0A2.739,2.739,0,1,1,2.739,0" fill="#4c78a8" stroke-width="2" opacity="1"/><path aria-label="date: Feb 26; value: 25" role="graphics-symbol" aria-roledescription="point" transform="translate(115.55555555555554,7.692307692307687)" d="M2.739,0A2.739,2.739,0,1,1,-2.739,0A2.739,2.739,0,1,1,2.739,0" fill="#4c78a8" stroke-width="2" opacity="1"/><path aria-label="date: Feb 27; value: 25" role="graphics-symbol" aria-roledescription="point" transform="translate(120,7.692307692307687)" d="M2.739,0A2.739,2.739,0,1,1,-2.739,0A2.739,2.739,0,1,1,2.739,0" fill="#4c78a8" stroke-width="2" opacity="1"/><path aria-label="date: Feb 28; value: 25" role="graphics-symbol" aria-roledescription="point" transform="translate(124.44444444444444,7.692307692307687)" d="M2.739,0A2.739,2.739,0,1,1,-2.739,0A2.739,2.739,0,1,1,2.739,0" fill="#4c78a8" stroke-width="2" opacity="1"/><path aria-label="date: Mar 01; value: 25" role="graphics-symbol" aria-roledescription="point" transform="translate(128.88888888888889,7.692307692307687)" d="M2.739,0A2.739,2.739,0,1,1,-2.739,0A2.739,2.739,0,1,1,2.739,0" fill="#4c78a8" stroke-width="2" opacity="1"/><path aria-label="date: Mar 02; value: 25" role="graphics-symbol" aria-roledescription="point" transform="translate(133.33333333333331,7.692307692307687)" d="M2.739,0A2.739,2.739,0,1,1,-2.739,0A2.739,2.739,0,1,1,2.739,0" fill="#4c78a8" stroke-width="2" opacity="1"/><path aria-label="date: Mar 03; value: 25" role="graphics-symbol" aria-roledescription="point" transform="translate(137.77777777777777,7.692307692307687)" d="M2.739,0A2.739,2.739,0,1,1,-2.739,0A2.739,2.739,0,1,1,2.739,0" fill="#4c78a8" stroke-width="2" opacity="1"/><path aria-label="date: Mar 04; value: 25" role="graphics-symbol" aria-roledescription="point" transform="translate(142.22222222222223,7.692307692307687)" d="M2.739,0A2.739,2.739,0,1,1,-2.739,0A2.739,2.739,0,1,1,2.739,0" fill="#4c78a8" stroke-width="2" opacity="1"/><path aria-label="date: Mar 05; value: 25" role="graphics-symbol" aria-roledescription="point" transform="translate(146.66666666666666,7.692307692307687)" d="M2.739,0A2.739,2.739,0,1,1,-2.739,0A2.739,2.739,0,1,1,2.739,0" fill="#4c78a8" stroke-width="2" opacity="1"/><path aria-label="date: Mar 06; value: 25" role="graphics-symbol" aria-roledescription="point" transform="translate(151.11111111111111,7.692307692307687)" d="M2.739,0A2.739,2.739,0,1,1,-2.739,0A2.739,2.739,0,1,1,2.739,0" fill="#4c78a8" stroke-width="2" opacity="1"/><path aria-label="date: Mar 07; value: 25" role="graphics-symbol" aria-roledescription="point" transform="translate(155.55555555555557,7.692307692307687)" d="M2.739,0A2.739,2.739,0,1,1,-2.739,0A2.739,2.739,0,1,1,2.739,0" fill="#4c78a8" stroke-width="2" opacity="1"/><path aria-label="date: Mar 08; value: 25" role="graphics-symbol" aria-roledescription="point" transform="translate(160,7.692307692307687)" d="M2.739,0A2.739,2.739,0,1,1,-2.739,0A2.739,2.739,0,1,1,2.739,0" fill="#4c78a8" stroke-width="2" opacity="1"/><path aria-label="date: Mar 09; value: 25" role="graphics-symbol" aria-roledescription="point" transform="translate(164.44444444444443,7.692307692307687)" d="M2.739,0A2.739,2.739,0,1,1,-2.739,0A2.739,2.739,0,1,1,2.739,0" fill="#4c78a8" stroke-width="2" opacity="1"/><path aria-label="date: Mar 10; value: 25" role="graphics-symbol" aria-roledescription="point" transform="translate(168.88888888888889,7.692307692307687)" d="M2.739,0A2.739,2.739,0,1,1,-2.739,0A2.739,2.739,0,1,1,2.739,0" fill="#4c78a8" stroke-width="2" opacity="1"/><path aria-label="date: Mar 11; value: 25" role="graphics-symbol" aria-roledescription="point" transform="translate(173.33333333333334,7.692307692307687)" d="M2.739,0A2.739,2.739,0,1,1,-2.739,0A2.739,2.739,0,1,1,2.739,0" fill="#4c78a8" stroke-width="2" opacity="1"/><path aria-label="date: Mar 12; value: 25" role="graphics-symbol" aria-roledescription="point" transform="translate(177.77777777777777,7.692307692307687)" d="M2.739,0A2.739,2.739,0,1,1,-2.739,0A2.739,2.739,0,1,1,2.739,0" fill="#4c78a8" stroke-width="2" opacity="1"/><path aria-label="date: Mar 13; value: 25" role="graphics-symbol" aria-roledescription="point" transform="translate(182.22222222222223,7.692307692307687)" d="M2.739,0A2.739,2.739,0,1,1,-2.739,0A2.739,2.739,0,1,1,2.739,0" fill="#4c78a8" stroke-width="2" opacity="1"/><path aria-label="date: Mar 14; value: 25" role="graphics-symbol" aria-roledescription="point" transform="translate(186.66666666666666,7.692307692307687)" d="M2.739,0A2.739,2.739,0,1,1,-2.739,0A2.739,2.739,0,1,1,2.739,0" fill="#4c78a8" stroke-width="2" opacity="1"/><path aria-label="date: Mar 15; value: 25" role="graphics-symbol" aria-roledescription="point" transform="translate(191.11111111111111,7.692307692307687)" d="M2.739,0A2.739,2.739,0,1,1,-2.739,0A2.739,2.739,0,1,1,2.739,0" fill="#4c78a8" stroke-width="2" opacity="1"/><path aria-label="date: Mar 16; value: 25" role="graphics-symbol" aria-roledescription="point" transform="translate(195.55555555555554,7.692307692307687)" d="M2.739,0A2.739,2.739,0,1,1,-2.739,0A2.739,2.739,0,1,1,2.739,0" fill="#4c78a8" stroke-width="2" opacity="1"/><path aria-label="date: Mar 17; value: 25" role="graphics-symbol" aria-roledescription="point" transform="translate(200,7.692307692307687)" d="M2.739,0A2.739,2.739,0,1,1,-2.739,0A2.739,2.739,0,1,1,2.739,0" fill="#4c78a8" stroke-width="2" opacity="1"/></g><g class="mark-group role-title"><g transform="translate(100,-17)"><path class="background" aria-hidden="true" d="M0,0h0v0h0Z" pointer-events="none"/><g><g class="mark-text role-title-text" role="graphics-symbol" aria-roledescription="title" aria-label="Title text 'Burndown chart sprint'" pointer-events="none"><text text-anchor="middle" transform="translate(0,10)" font-family="sans-serif" font-size="13px" font-weight="bold" fill="#000" opacity="1">Burndown chart sprint</text></g></g><path class="foreground" aria-hidden="true" d="" pointer-events="none" display="none"/></g></g></g><path class="foreground" aria-hidden="true" d="" display="none"/></g></g></g></svg>