<svg xmlns="http://www.w3.org/2000/svg" xmlns:xlink="http://www.w3.org/1999/xlink" version="1.1" class="marks" width="257" height="259" viewBox="0 0 257 259"><rect width="257" height="259" fill="white"/><g fill="none" stroke-miterlimit="10" transform="translate(43,22)"><g class="mark-group role-frame root" role="graphics-object" aria-roledescription="group mark container"><g transform="translate(0,0)"><path class="background" aria-hidden="true" d="M0.5,0.5h200v200h-200Z" stroke="#ddd"/><g><g class="mark-group role-axis" aria-hidden="true"><g transform="translate(0.5,200.5)"><path class="background" aria-hidden="true" d="M0,0h0v0h0Z" pointer-events="none"/><g><g class="mark-rule role-axis-grid" pointer-events="none"><line transform="translate(16,-200)" x2="0" y2="200" stroke="#ddd" stroke-width="1" opacity="1"/><line transform="translate(72,-200)" x2="0" y2="200" stroke="#ddd" stroke-width="1" opacity="1"/><line transform="translate(128,-200)" x2="0" y2="200" stroke="#ddd" stroke-width="1" opacity="1"/><line transform="translate(184,-200)" x2="0" y2="200" stroke="#ddd" stroke-width="1" opacity="1"/></g></g><path class="foreground" aria-hidden="true" d="" pointer-events="none" display="none"/></g></g><g class="mark-group role-axis" aria-hidden="true"><g transform="translate(0.5,0.5)"><path class="background" aria-hidden="true" d="M0,0h0v0h0Z" pointer-events="none"/><g><g class="mark-rule role-axis-grid" pointer-events="none"><line transform="translate(0,200)" x2="200" y2="0" stroke="#ddd" stroke-width="1" opacity="1"/><line transform="translate(0,162)" x2="200" y2="0" stroke="#ddd" stroke-width="1" opacity="1"/><line transform="translate(0,123)" x2="200" y2="0" stroke="#ddd" stroke-width="1" opacity="1"/><line transform="translate(0,85)" x2="200" y2="0" stroke="#ddd" stroke-width="1" opacity="1"/><line transform="translate(0,46)" x2="200" y2="0" stroke="#ddd" stroke-width="1" opacity="1"/><line transform="translate(0,8)" x2="200" y2="0" stroke="#ddd" stroke-width="1" opacity="1"/></g></g><path class="foreground" aria-hidden="true" d="" pointer-events="none" display="none"/></g></g><g class="mark-group role-axis" role="graphics-symbol" aria-roledescription="axis" aria-label="X-axis titled 'date' for a time scale with values from January 31 to February 25"><g transform="translate(0.5,200.5)"><path class="background" aria-hidden="true" d="M0,0h0v0h0Z" pointer-events="none"/><g><g class="mark-rule role-axis-tick" pointer-events="none"><line transform="translate(16,0)" x2="0" y2="5" stroke="#888" stroke-width="1" opacity="1"/><line transform="translate(72,0)" x2="0" y2="5" stroke="#888" stroke-width="1" opacity="1"/><line transform="translate(128,0)" x2="0" y2="5" stroke="#888" stroke-width="1" opacity="1"/><line transform="translate(184,0)" x2="0" y2="5" stroke="#888" stroke-width="1" opacity="1"/></g><g class="mark-text role-axis-label" pointer-events="none"><text text-anchor="middle" transform="translate(16,15)" font-family="sans-serif" font-size="10px" fill="#000" opacity="1">Feb 02</text><text text-anchor="middle" transform="translate(72,15)" font-family="sans-serif" font-size="10px" fill="#000" opacity="1">Feb 09</text><text text-anchor="middle" transform="translate(128,15)" font-family="sans-serif" font-size="10px" fill="#000" opacity="1">Feb 16</text><text text-anchor="middle" transform="translate(184,15)" font-family="sans-serif" font-size="10px" fill="#000" opacity="1">Feb 23</text></g><g class="mark-rule role-axis-domain" pointer-events="none"><line transform="translate(0,0)" x2="200" y2="0" stroke="#888" stroke-width="1" opacity="1"/></g><g class="mark-text role-axis-title" pointer-events="none"><text text-anchor="middle" transform="translate(100,30)" font-family="sans-serif" font-size="11px" font-weight="bold" fill="#000" opacity="1">date</text></g></g><path class="foreground" aria-hidden="true" d="" pointer-events="none" display="none"/></g></g><g class="mark-group role-axis" role="graphics-symbol" aria-roledescription="axis" aria-label="Y-axis titled 'value' for a linear scale with values from 0 to 26"><g transform="translate(0.5,0.5)"><path class="background" aria-hidden="true" d="M0,0h0v0h0Z" pointer-events="none"/><g><g class="mark-rule role-axis-tick" pointer-events="none"><line transform="translate(0,200)" x2="-5" y2="0" stroke="#888" stroke-width="1" opacity="1"/><line transform="translate(0,162)" x2="-5" y2="0" stroke="#888" stroke-width="1" opacity="1"/><line transform="translate(0,123)" x2="-5" y2="0" stroke="#888" stroke-width="1" opacity="1"/><line transform="translate(0,85)" x2="-5" y2="0" stroke="#888" stroke-width="1" opacity="1"/><line transform="translate(0,46)" x2="-5" y2="0" stroke="#888" stroke-width="1" opacity="1"/><line transform="translate(0,8)" x2="-5" y2="0" stroke="#888" stroke-width="1" opacity="1"/></g><g class="mark-text role-axis-label" pointer-events="none"><text text-anchor="end" transform="translate(-7,203)" font-family="sans-serif" font-size="10px" fill="#000" opacity="1">0</text><text text-anchor="end" transform="translate(-7,164.53846153846155)" font-family="sans-serif" font-size="10px" fill="#000" opacity="1">5</text><text text-anchor="end" transform="translate(-7,126.07692307692308)" font-family="sans-serif" font-size="10px" fill="#000" opacity="1">10</text><text text-anchor="end" transform="translate(-7,87.61538461538463)" font-family="sans-serif" font-size="10px" fill="#000" opacity="1">15</text><text text-anchor="end" transform="translate(-7,49.153846153846146)" font-family="sans-serif" font-size="10px" fill="#000" opacity="1">20</text><text text-anchor="end" transform="translate(-7,10.692307692307686)" font-family="sans-serif" font-size="10px" fill="#000" opacity="1">25</text></g><g class="mark-rule role-axis-domain" pointer-events="none"><line transform="translate(0,200)" x2="0" y2="-200" stroke="#888" stroke-width="1" opacity="1"/></g><g class="mark-text role-axis-title" pointer-events="none"><text text-anchor="middle" transform="translate(-27,100) rotate(-90) translate(0,-2)" font-family="sans-serif" font-size="11px" font-weight="bold" fill="#000" opacity="1">value</text></g></g><path class="foreground" aria-hidden="true" d="" pointer-events="none" display="none"/></g></g><g class="mark-line role-mark layer_0_layer_0_marks" role="graphics-object" aria-roledescription="line mark container"><path aria-label="date: Jan 31; value: 25" role="graphics-symbol" aria-roledescription="line mark" d="M0,7.692L8,7.692L16,7.692L24,7.692L32,7.692L40,7.692L48,7.692L56,7.692L64,7.692L72,7.692L80,7.692L88,7.692L96,7.692L104,7.692L112,7.692L120,7.692L128,7.692L136,7.692L144,7.692L152,7.692L160,7.692L168,7.692L176,7.692L184,7.692L192,7.692L200,7.692" stroke="#4c78a8" stroke-width="2"/></g><g class="mark-symbol role-mark layer_0_layer_1_marks" role="graphics-object" aria-roledescription="symbol mark container"><path aria-label="date: Jan 31; value: 25" role="graphics-symbol" aria-roledescription="point" transform="translate(0,7.692307692307687)" d="M2.739,0A2.739,2.739,0,1,1,-2.739,0A2.739,2.739,0,1,1,2.739,0" fill="#4c78a8" stroke-width="2" opacity="1"/><path aria-label="date: Feb 01; value: 25" role="graphics-symbol" aria-roledescription="point" transform="translate(8,7.692307692307687)" d="M2.739,0A2.739,2.739,0,1,1,-2.739,0A2.739,2.739,0,1,1,2.739,0" fill="#4c78a8" stroke-width="2" opacity="1"/><path aria-label="date: Feb 02; value: 25" role="graphics-symbol" aria-roledescription="point" transform="translate(16,7.692307692307687)" d="M2.739,0A2.739,2.739,0,1,1,-2.739,0A2.739,2.739,0,1,1,2.739,0" fill="#4c78a8" stroke-width="2" opacity="1"/><path aria-label="date: Feb 03; value: 25" role="graphics-symbol" aria-roledescription="point" transform="translate(24,7.692307692307687)" d="M2.739,0A2.739,2.739,0,1,1,-2.739,0A2.739,2.739,0,1,1,2.739,0" fill="#4c78a8" stroke-width="2" opacity="1"/><path aria-label="date: Feb 04; value: 25" role="graphics-symbol" aria-roledescription="point" transform="translate(32,7.692307692307687)" d="M2.739,0A2.739,2.739,0,1,1,-2.739,0A2.739,2.739,0,1,1,2.739,0" fill="#4c78a8" stroke-width="2" opacity="1"/><path aria-label="date: Feb 05; value: 25" role="graphics-symbol" aria-roledescription="point" transform="translate(40,7.692307692307687)" d="M2.739,0A2.739,2.739,0,1,1,-2.739,0A2.739,2.739,0,1,1,2.739,0" fill="#4c78a8" stroke-width="2" opacity="1"/><path aria-label="date: Feb 06; value: 25" role="graphics-symbol" aria-roledescription="point" transform="translate(48,7.692307692307687)" d="M2.739,0A2.739,2.739,0,1,1,-2.739,0A2.739,2.739,0,1,1,2.739,0" fill="#4c78a8" stroke-width="2" opacity="1"/><path aria-label="date: Feb 07; value: 25" role="graphics-symbol" aria-roledescription="point" transform="translate(56.00000000000001,7.692307692307687)" d="M2.739,0A2.739,2.739,0,1,1,-2.739,0A2.739,2.739,0,1,1,2.739,0" fill="#4c78a8" stroke-width="2" opacity="1"/><path aria-label="date: Feb 08; value: 25" role="graphics-symbol" aria-roledescription="point" transform="translate(64,7.692307692307687)" d="M2.739,0A2.739,2.739,0,1,1,-2.739,0A2.739,2.739,0,1,1,2.739,0" fill="#4c78a8" stroke-width="2" opacity="1"/><path aria-label="date: Feb 09; value: 25" role="graphics-symbol" aria-roledescription="point" transform="translate(72,7.692307692307687)" d="M2.739,0A2.739,2.739,0,1,1,-2.739,0A2.739,2.739,0,1,1,2.739,0" fill="#4c78a8" stroke-width="2" opacity="1"/><path aria-label="date: Feb 10; value: 25" role="graphics-symbol" aria-roledescription="point" transform="translate(80,7.692307692307687)" d="M2.739,0A2.739,2.739,0,1,1,-2.739,0A2.739,2.739,0,1,1,2.739,0" fill="#4c78a8" stroke-width="2" opacity="1"/><path aria-label="date: Feb 11; value: 25" role="graphics-symbol" aria-roledescription="point" transform="translate(88,7.692307692307687)" d="M2.739,0A2.739,2.739,0,1,1,-2.739,0A2.739,2.739,0,1,1,2.739,0" fill="#4c78a8" stroke-width="2" opacity="1"/><path aria-label="date: Feb 12; value: 25" role="graphics-symbol" aria-roledescription="point" transform="translate(96,7.692307692307687)" d="M2.739,0A2.739,2.739,0,1,1,-2.739,0A2.739,2.739,0,1,1,2.739,0" fill="#4c78a8" stroke-width="2" opacity="1"/><path aria-label="date: Feb 13; value: 25" role="graphics-symbol" aria-roledescription="point" transform="translate(104,7.692307692307687)" d="M2.739,0A2.739,2.739,0,1,1,-2.739,0A2.739,2.739,0,1,1,2.739,0" fill="#4c78a8" stroke-width="2" opacity="1"/><path aria-label="date: Feb 14; value: 25" role="graphics-symbol" aria-roledescription="point" transform="translate(112.00000000000001,7.692307692307687)" d="M2.739,0A2.739,2.739,0,1,1,-2.739,0A2.739,2.739,0,1,1,2.739,0" fill="#4c78a8" stroke-width="2" opacity="1"/><path aria-label="date: Feb 15; value: 25" role="graphics-symbol" aria-roledescription="point" transform="translate(120,7.692307692307687)" d="M2.739,0A2.739,2.739,0,1,1,-2.739,0A2.739,2.739,0,1,1,2.739,0" fill="#4c78a8" stroke-width="2" opacity="1"/><path aria-label="date: Feb 16; value: 25" role="graphics-symbol" aria-roledescription="point" transform="translate(128,7.692307692307687)" d="M2.739,0A2.739,2.739,0,1,1,-2.739,0A2.739,2.739,0,1,1,2.739,0" fill="#4c78a8" stroke-width="2" opacity="1"/><path aria-label="date: Feb 17; value: 25" role="graphics-symbol" aria-roledescription="point" transform="translate(136,7.692307692307687)" d="M2.739,0A2.739,2.739,0,1,1,-2.739,0A2.739,2.739,0,1,1,2.739,0" fill="#4c78a8" stroke-width="2" opacity="1"/><path aria-label="date: Feb 18; value: 25" role="graphics-symbol" aria-roledescription="point" transform="translate(144,7.692307692307687)" d="M2.739,0A2.739,2.739,0,1,1,-2.739,0A2.739,2.739,0,1,1,2.739,0" fill="#4c78a8" stroke-width="2" opacity="1"/><path aria-label="date: Feb 19; value: 25" role="graphics-symbol" aria-roledescription="point" transform="translate(152,7.692307692307687)" d="M2.739,0A2.739,2.739,0,1,1,-2.739,0A2.739,2.739,0,1,1,2.739,0" fill="#4c78a8" stroke-width="2" opacity="1"/><path aria-label="date: Feb 20; value: 25" role="graphics-symbol" aria-roledescription="point" transform="translate(160,7.692307692307687)" d="M2.739,0A2.739,2.739,0,1,1,-2.739,0A2.739,2.739,0,1,1,2.739,0" fill="#4c78a8" stroke-width="2" opacity="1"/><path aria-label="date: Feb 21; value: 25" role="graphics-symbol" aria-roledescription="point" transform="translate(168,7.692307692307687)" d="M2.739,0A2.739,2.739,0,1,1,-2.739,0A2.739,2.739,0,1,1,2.739,0" fill="#4c78a8" stroke-width="2" opacity="1"/><path aria-label="date: Feb 22; value: 25" role="graphics-symbol" aria-roledescription="point" transform="translate(176,7.692307692307687)" d="M2.739,0A2.739,2.739,0,1,1,-2.739,0A2.739,2.739,0,1,1,2.739,0" fill="#4c78a8" stroke-width="2" opacity="1"/><path aria-label="date: Feb 23; value: 25" role="graphics-symbol" aria-roledescription="point" transform="translate(184,7.692307692307687)" d="M2.739,0A2.739,2.739,0,1,1,-2.739,0A2.739,2.739,0,1,1,2.739,0" fill="#4c78a8" stroke-width="2" opacity="1"/><path aria-label="date: Feb 24; value: 25" role="graphics-symbol" aria-roledescription="point" transform="translate(192,7.692307692307687)" d="M2.739,0A2.739,2.739,0,1,1,-2.739,0A2.739,2.739,0,1,1,2.739,0" fill="#4c78a8" stroke-width="2" opacity="1"/><path aria-label="date: Feb 25; value: 25" role="graphics-symbol" aria-roledescription="point" transform="translate(200,7.692307692307687)" d="M2.739,0A2.739,2.739,0,1,1,-2.739,0A2.739,2.739,0,1,1,2.739,0" fill="#4c78a8" stroke-width="2" opacity="1"/></g><g class="mark-group role-title"><g transform="translate(100,-17)"><path class="background" aria-hidden="true" d="M0,0h0v0h0Z" pointer-events="none"/><g><g class="mark-text role-title-text" role="graphics-symbol" aria-roledescription="title" aria-label="Title text 'Burndown chart sprint'" pointer-events="none"><text text-anchor="middle" transform="translate(0,10)" font-family="sans-serif" font-size="13px" font-weight="bold" fill="#000" opacity="1">Burndown chart sprint</text></g></g><path class="foreground" aria-hidden="true" d="" pointer-events="none" display="none"/></g></g></g><path class="foreground" aria-hidden="true" d="" display="none"/></g></g></g></svg>